<?xml version="1.0" encoding="utf-8"?>
<!-- Generator: Adobe Illustrator 16.0.0, SVG Export Plug-In . SVG Version: 6.00 Build 0)  -->
<!DOCTYPE svg PUBLIC "-//W3C//DTD SVG 1.1//EN" "http://www.w3.org/Graphics/SVG/1.1/DTD/svg11.dtd">
<svg version="1.1" id="Layer_1" xmlns="http://www.w3.org/2000/svg" xmlns:xlink="http://www.w3.org/1999/xlink" x="0px" y="0px"
	 width="265px" height="148px" viewBox="0 0 265 148" enable-background="new 0 0 265 148" xml:space="preserve">
<g>
	<defs>
		<rect id="SVGID_1_" width="265" height="149.063"/>
	</defs>
	<clipPath id="SVGID_2_">
		<use xlink:href="#SVGID_1_"  overflow="visible"/>
	</clipPath>
	<g clip-path="url(#SVGID_2_)">
		<defs>
			<rect id="SVGID_3_" width="265" height="149.063"/>
		</defs>
		<clipPath id="SVGID_4_">
			<use xlink:href="#SVGID_3_"  overflow="visible"/>
		</clipPath>
		
			<linearGradient id="SVGID_5_" gradientUnits="userSpaceOnUse" x1="-506.6045" y1="434.9883" x2="-506.3972" y2="434.9883" gradientTransform="matrix(-1284.4734 0 0 1284.4734 -650455.0625 -558656.5)">
			<stop  offset="0" style="stop-color:#9A5CFF"/>
			<stop  offset="0.9948" style="stop-color:#4059BF"/>
			<stop  offset="1" style="stop-color:#4059BF"/>
		</linearGradient>
		<rect clip-path="url(#SVGID_4_)" fill="url(#SVGID_5_)" width="265" height="149.063"/>
	</g>
	<g clip-path="url(#SVGID_2_)">
		<defs>
			<path id="SVGID_6_" d="M0,0v36.915c5.741,7.784,14.958,12.92,25.17,12.927c17.307,0.012,31.34-14.021,31.327-31.329
				C56.493,11.64,54.164,5.215,50.268,0H0z"/>
		</defs>
		<clipPath id="SVGID_7_">
			<use xlink:href="#SVGID_6_"  overflow="visible"/>
		</clipPath>
		
			<linearGradient id="SVGID_8_" gradientUnits="userSpaceOnUse" x1="-505.0845" y1="435.4512" x2="-504.8778" y2="435.4512" gradientTransform="matrix(225.6997 237.1116 237.1116 -225.6997 10736.5781 218026.9063)">
			<stop  offset="0" style="stop-color:#9A5CFF"/>
			<stop  offset="0.3024" style="stop-color:#975CFD"/>
			<stop  offset="0.4937" style="stop-color:#8F5CF7"/>
			<stop  offset="0.6541" style="stop-color:#805BED"/>
			<stop  offset="0.7975" style="stop-color:#6B5ADE"/>
			<stop  offset="0.9283" style="stop-color:#515ACB"/>
			<stop  offset="0.9948" style="stop-color:#4059BF"/>
			<stop  offset="1" style="stop-color:#4059BF"/>
		</linearGradient>
		<polygon clip-path="url(#SVGID_7_)" fill="url(#SVGID_8_)" points="29.648,-28.221 81.407,26.155 26.862,78.074 -24.896,23.698 		
			"/>
	</g>
	<g clip-path="url(#SVGID_2_)">
		<defs>
			<rect id="SVGID_9_" width="265" height="149.063"/>
		</defs>
		<clipPath id="SVGID_10_">
			<use xlink:href="#SVGID_9_"  overflow="visible"/>
		</clipPath>
		<path clip-path="url(#SVGID_10_)" fill="#FFFFFF" d="M131.806,109.423c32.285,47.024,104.899-6.417,137.749,11.571V-19.668
			H164.021c0,0,22.869,24.808-10.432,48.101C123.631,49.39,112.624,81.482,131.806,109.423"/>
		<path clip-path="url(#SVGID_10_)" fill="#EEA886" d="M255.138,89.599c0,0-0.02-0.247,0.06-0.334
			c0.079-0.086,0.144-0.239,0.161-0.289c0.023-0.066,0.172-0.247,0.089-0.271c-0.082-0.025-0.257,0.287-0.306,0.346
			c-0.05,0.06-0.103-0.266-0.16-0.314s-0.603,0.103-0.54,0.32c0.063,0.217,0.199,0.4,0.239,0.479c0.019,0.037,0.08,0.2,0.08,0.2
			L255.138,89.599z"/>
		<path clip-path="url(#SVGID_10_)" fill="#EEA987" d="M257.87,101.718c0,0-0.779,1.692-1.049,2.03
			c-0.271,0.337-0.879,1.398-0.854,1.603c0.025,0.205,0.039,0.453,0.29,0.846c0.25,0.393,0.368,1.319,0.348,1.618
			c-0.021,0.3-0.199,2.051-0.166,2.195c0.033,0.146-0.47,0.18-0.467-0.018c0.005-0.3-0.299-2.221-0.456-2.77
			c-0.156-0.55-0.685-1.572-0.649-1.875c0.036-0.304,0.373-1.758,0.501-2.194c0.229-0.78,0.669-2.139,0.747-2.313
			C256.202,100.644,258.169,99.397,257.87,101.718"/>
		<path clip-path="url(#SVGID_10_)" fill="#EEA987" d="M258.697,100.104c0,0,0.603,0.72,0.397,1.53s-0.71,2.6-0.74,2.892
			s-0.217,0.753,0.019,0.744c0.315-0.012,0.688-0.074,1.338,0.07c0.43,0.096,1.036-0.019,1.475,0.01
			c0.173,0.012,0.163,0.343,0.012,0.47c-0.119,0.1-3.098,0.617-3.643,0.499c-0.236-0.052-0.349-0.341-0.42-1.224
			c-0.032-0.397,0.015-1.765-0.041-2.239c-0.057-0.474-0.001-1.209-0.001-1.209S256.254,99.554,258.697,100.104"/>
		<path clip-path="url(#SVGID_10_)" fill="#74C4B8" d="M255.834,100.931c0.487,0.583,1.476,1.122,1.562,1.148
			c0.085,0.026,0.183,0.035,0.183,0.035c0.195-0.523,0.451-0.872,0.696-1.089c0.591-0.523,1.211-0.334,1.211-0.334
			c-0.001-0.015-0.009-0.039-0.012-0.054c0-0.001,0,0,0,0c-0.039-0.229-0.233-0.496-0.252-0.521c0,0,0-0.001-0.001-0.001
			c0-0.001,0-0.001,0-0.001c-1.823,0.598-3.058,0.407-3.203,0.381c-0.009-0.001-0.014-0.003-0.014-0.003
			C255.954,100.601,255.834,100.931,255.834,100.931"/>
		<path clip-path="url(#SVGID_10_)" fill="#EEA886" d="M263.074,99.769c0,0,0.126,0.048,0.19,0.114
			c0.052,0.054,0.169,0.103,0.228,0.134c0.06,0.031,0.299,0.193,0.346,0.247c0.019,0.022,0.082,0.203,0.126,0.243
			s0.144,0.11,0.106,0.147s-0.144-0.002-0.144-0.002s0.037,0.038,0.015,0.08c-0.044,0.082-0.102,0.082-0.102,0.082
			s0.012,0.064-0.016,0.095c-0.059,0.064-0.115,0.063-0.115,0.063s-0.011,0.049-0.06,0.084c-0.063,0.044-0.132,0.011-0.132,0.011
			s-0.065,0.074-0.117,0.055s-0.079-0.061-0.114-0.086c-0.036-0.026-0.266-0.325-0.334-0.611c-0.068-0.287-0.352-0.424-0.352-0.424
			L263.074,99.769z"/>
		<path clip-path="url(#SVGID_10_)" fill="#DB9C7C" d="M263.915,100.616c0,0-0.205-0.27-0.321-0.273
			c-0.116-0.003-0.048,0.098-0.048,0.098s-0.065-0.101-0.153-0.057s-0.001,0.158-0.001,0.158s-0.071-0.063-0.141,0.012
			c-0.069,0.075,0.024,0.153,0.024,0.153s-0.15-0.034-0.131,0.091c0.033,0.21,0.256,0.323,0.256,0.323s0.056,0.022,0.117-0.055
			c0,0,0.135,0.064,0.191-0.095c0,0,0.17-0.023,0.131-0.157C263.84,100.814,264.02,100.779,263.915,100.616"/>
		<path clip-path="url(#SVGID_10_)" fill="#EDDAD3" d="M257.344,94.695c0,0-0.382-0.536-0.543-0.807
			c-0.191-0.319-0.512-1.305-0.566-1.591c-0.073-0.381-1.025-2.897-1.025-2.897l-0.568,0.354c0,0,0.688,2.266,0.761,2.476
			c0.106,0.31,0.411,1.454,0.493,1.714c0.065,0.208,0.267,0.722,0.34,1.024c0.065,0.271,0.287,0.945,0.287,0.945L257.344,94.695z"/>
		<path clip-path="url(#SVGID_10_)" fill="#254380" d="M255.049,104.356c0,0,0.398,0.487,3.275,0.487c0,0,1.719-3.427,1.102-4.419
			c-0.544-0.873-3.307-0.28-3.307-0.28S255.489,101.146,255.049,104.356"/>
		<path clip-path="url(#SVGID_10_)" fill="#E6B74C" d="M258.043,94.531c0,0-0.469,0.152-0.627,0.163
			c-0.157,0.011-0.854,0.708-0.994,0.978c-0.142,0.269-0.092,0.706,0.06,1.232c0.15,0.525-0.073,0.665-0.039,1.176
			s-0.017,1.575-0.07,1.85c-0.054,0.273,2.443,0.649,3.08,0.219c0,0-0.464-0.934-0.521-1.066s0.09-0.795,0.18-0.958
			s0.731-1.477,0.731-1.477s0.511-1.168,0.211-1.47c-0.26-0.262-1.036-0.443-1.172-0.511
			C258.746,94.6,258.338,94.525,258.043,94.531"/>
		<path clip-path="url(#SVGID_10_)" fill="#EEA886" d="M259.301,91.623c-0.226-0.168-1.088-0.676-1.677,0.445
			s-0.194,2.172,0.479,2.135c0.673-0.038,1.302-0.744,1.532-1.36S259.585,91.834,259.301,91.623"/>
		<path clip-path="url(#SVGID_10_)" fill="#252E3B" d="M257.624,92.068c0,0,0.271-1.032,1.294-0.753
			c1.022,0.279,1.036,1.196,0.765,1.778c-0.271,0.581-0.79,0.771-0.79,0.771s0.189-0.479,0.032-0.669
			c-0.156-0.188-0.864-0.688-1.024-1.386C257.9,91.811,257.684,91.947,257.624,92.068"/>
		<path clip-path="url(#SVGID_10_)" fill="#252E3B" d="M258.919,92.353c0.008,0.447,0.33,0.804,0.721,0.798
			c0.391-0.007,0.701-0.374,0.694-0.821c-0.008-0.446-0.33-0.803-0.721-0.797C259.223,91.539,258.912,91.906,258.919,92.353"/>
		<path clip-path="url(#SVGID_10_)" fill="#EEA886" d="M257.897,93.993c0,0-0.016,0.823-0.068,1.085c0,0,0.4,0.521,1.052-0.411
			c0,0-0.166-0.439,0.071-0.979C259.19,93.148,257.897,93.993,257.897,93.993"/>
		<polygon clip-path="url(#SVGID_10_)" fill="#EEA886" points="257.829,95.078 257.774,95.499 258.355,95.172 		"/>
		<path clip-path="url(#SVGID_10_)" fill="#EDDAD3" d="M258.958,94.697c0,0-0.742,0.862-0.825,1.273
			c-0.084,0.411-0.224,3.548-0.144,4.572s1.73,0.109,1.73,0.109s-0.802-1.771-0.243-3.033c0.558-1.263,0.89-2.105,0.89-2.105
			s-0.211-0.457-0.623-0.576C259.332,94.819,258.958,94.697,258.958,94.697"/>
		<path clip-path="url(#SVGID_10_)" fill="#EDDAD3" d="M256.365,95.788c0,0-0.177,0.54,0.168,1.409c0,0-0.16,1.029-0.218,1.379
			c-0.058,0.349-0.311,1.662-0.311,1.662l0.398,0.309c0.08,0.062,0.197,0.005,0.198-0.097c0.008-1.023,0.104-4.898,1.095-5.816
			l-0.357,0.058C257.339,94.691,256.485,95.281,256.365,95.788"/>
		<path clip-path="url(#SVGID_10_)" fill="#EEA886" d="M258.891,92.95c0.065-0.082,0.196-0.07,0.251,0.005s0.046,0.248-0.131,0.42
			C258.834,93.548,258.393,93.568,258.891,92.95"/>
		<path clip-path="url(#SVGID_10_)" fill="#A77860" d="M257.893,94.175l-0.004,0.161c0,0,0.355,0.118,0.909-0.402
			C258.798,93.934,258.405,94.303,257.893,94.175"/>
		<path clip-path="url(#SVGID_10_)" fill="#E6B74C" d="M258.835,94.461c0,0-0.488,0.137-0.951-0.044l-0.07,0.232l-0.123,0.954
			c0,0,0.963-0.538,0.965-0.571c0.003-0.032,0.255-0.352,0.255-0.352L258.835,94.461z"/>
		<path clip-path="url(#SVGID_10_)" fill="#EDDAD3" d="M259.799,94.956c0,0,0.149,0.034,0.403,0.305
			c0.252,0.271,0.376,0.669,0.442,0.813s0.887,1.554,0.935,1.584s0.438,0.543,0.75,0.974c0.337,0.463,0.916,1.25,0.916,1.25
			l-0.521,0.414c0,0-1.293-1.523-1.612-1.948c-0.341-0.453-1.558-1.786-1.558-1.786S258.804,95.32,259.799,94.956"/>
		<path clip-path="url(#SVGID_10_)" fill="#254380" d="M255.547,111.005c0.58-0.507,0.425-1.027,0.425-1.027
			s0.232-0.082,0.421-0.035s0.289,0.497,0.214,0.64l-0.059,0.738l-0.096-0.008l0.031-0.394c-0.111,0.381-0.219,0.858-0.476,0.934
			c-0.346,0.101-0.896,0.041-0.958-0.076C254.986,111.658,255.547,111.005,255.547,111.005"/>
		<path clip-path="url(#SVGID_10_)" fill="#EEA886" d="M255.972,109.978c0,0-0.065,0.324-0.147,0.551
			c-0.083,0.227-0.468,0.726-0.457,0.791c0.011,0.064,0.438,0.157,0.626,0.007c0.188-0.151,0.362-0.617,0.401-0.904
			s0.041-0.461,0.041-0.461S256.199,109.771,255.972,109.978"/>
		<path clip-path="url(#SVGID_10_)" fill="#EEA886" d="M260.913,105.886c0,0,0.356-0.083,0.496-0.048
			c0.141,0.035,0.941,0.063,1.065,0.181s0.338,0.379,0.404,0.349c0.066-0.031,0.354-0.226,0.083-0.622
			c-0.27-0.396-0.35-0.494-0.514-0.521c-0.163-0.026-0.703-0.202-0.773-0.306l0.495-0.338l-0.07-0.104c0,0-0.683,0.318-0.854,0.32
			c-0.173,0.002-0.552,0.383-0.592,0.707S260.913,105.886,260.913,105.886"/>
		<path clip-path="url(#SVGID_10_)" fill="#254380" d="M262.475,106.019c0,0-0.25-0.475-0.523-0.556
			c-0.273-0.083-0.791-0.061-1.061-0.422c0,0,0.074-0.252,0.612-0.313c0,0,0.525-0.196,0.597-0.251l0.07,0.104l-0.495,0.338
			c0,0,0.425,0.251,0.888,0.303c0,0,0.654,0.662,0.522,0.969c0,0-0.062,0.161-0.199,0.208
			C262.747,106.445,262.475,106.019,262.475,106.019"/>
		<path clip-path="url(#SVGID_10_)" fill="#BBD070" d="M230.366,52.171c0,0,11.296,6.938,4.706,23.791
			c-6.591,16.853-2.608,23.327-2.608,23.327S209.731,81.13,230.366,52.171"/>
		<path clip-path="url(#SVGID_10_)" fill="#97A43C" d="M248.976,49.702c0,0,11.43,11.685-1.505,29.864s-10.113,27.116-10.113,27.116
			S215.615,78.148,248.976,49.702"/>
		<path clip-path="url(#SVGID_10_)" fill="#48753A" d="M233.38,101.426c-6.482,1.786-2.058-17.414,7.396-23.928
			c9.455-6.513,18.236-7.693,23.368-13.689C264.145,63.809,265.301,92.631,233.38,101.426"/>
	</g>
	<g clip-path="url(#SVGID_2_)">
		<defs>
			<path id="SVGID_11_" d="M186.318,71.281c-5.104-0.057-9.194-4.241-9.138-9.345c0.058-5.104,4.241-9.194,9.345-9.137
				s9.194,4.241,9.138,9.345c-0.058,5.068-4.185,9.137-9.239,9.138C186.389,71.282,186.354,71.282,186.318,71.281 M182.162,44.803
				c-1.622,0.4-3.157,1.024-4.57,1.836l-2.868-1.954l-2.694,2.635l-2.695,2.636l1.889,2.91c-0.844,1.395-1.502,2.916-1.938,4.528
				l-3.406,0.646l-0.042,3.769l-0.043,3.769l3.391,0.722c0.399,1.623,1.023,3.157,1.836,4.57l-1.953,2.868l2.635,2.695l2.635,2.694
				l2.911-1.889c1.395,0.844,2.915,1.502,4.527,1.938l0.646,3.405l3.769,0.043l3.77,0.042l0.722-3.391
				c1.622-0.399,3.157-1.023,4.57-1.836l2.868,1.954l2.694-2.636l2.695-2.635l-1.889-2.911c0.844-1.395,1.502-2.915,1.938-4.528
				l3.406-0.646l0.042-3.769l0.043-3.769l-3.391-0.722c-0.4-1.622-1.024-3.157-1.836-4.57l1.953-2.868l-2.635-2.694l-2.635-2.695
				l-2.911,1.889c-1.395-0.844-2.915-1.502-4.528-1.938l-0.646-3.406l-3.769-0.042l-3.77-0.042L182.162,44.803z"/>
		</defs>
		<clipPath id="SVGID_12_">
			<use xlink:href="#SVGID_11_"  overflow="visible"/>
		</clipPath>
		
			<linearGradient id="SVGID_13_" gradientUnits="userSpaceOnUse" x1="-507.6426" y1="434.7617" x2="-507.4355" y2="434.7617" gradientTransform="matrix(199.2705 0 0 -199.2705 101323.9063 86697.2813)">
			<stop  offset="0" style="stop-color:#96CBFF"/>
			<stop  offset="1" style="stop-color:#5599FF"/>
		</linearGradient>
		<rect x="165.794" y="41.413" clip-path="url(#SVGID_12_)" fill="url(#SVGID_13_)" width="41.256" height="41.255"/>
	</g>
	<g clip-path="url(#SVGID_2_)">
		<defs>
			<path id="SVGID_14_" d="M209.376,78.344c-3.751-2.587-4.694-7.725-2.107-11.475c2.587-3.75,7.725-4.693,11.475-2.106
				c3.75,2.586,4.693,7.724,2.106,11.475c-1.601,2.32-4.177,3.566-6.798,3.566C212.438,79.804,210.806,79.33,209.376,78.344
				 M210.741,53.479l-3.31,0.608l-0.053,3.096c-1.319,0.612-2.565,1.41-3.692,2.387l-2.844-1.22l-1.91,2.769l-1.91,2.77l2.15,2.225
				c-0.513,1.401-0.816,2.848-0.92,4.3l-2.875,1.149l0.606,3.309l0.608,3.31l3.097,0.053c0.612,1.32,1.409,2.565,2.387,3.692
				l-1.221,2.844l2.77,1.911l2.77,1.91l2.226-2.15c1.4,0.513,2.848,0.815,4.3,0.919l1.148,2.876l3.31-0.607l3.309-0.607l0.054-3.097
				c1.319-0.612,2.564-1.41,3.692-2.387l2.844,1.22l1.91-2.77l1.91-2.77l-2.15-2.226c0.513-1.4,0.816-2.848,0.919-4.299l2.876-1.149
				l-0.607-3.309l-0.607-3.309l-3.097-0.053c-0.612-1.32-1.41-2.565-2.387-3.692l1.221-2.844l-2.77-1.911l-2.771-1.91l-2.225,2.151
				c-1.4-0.513-2.848-0.816-4.3-0.92l-1.148-2.875L210.741,53.479z"/>
		</defs>
		<clipPath id="SVGID_15_">
			<use xlink:href="#SVGID_14_"  overflow="visible"/>
		</clipPath>
		
			<linearGradient id="SVGID_16_" gradientUnits="userSpaceOnUse" x1="-508.3374" y1="434.9395" x2="-508.1304" y2="434.9395" gradientTransform="matrix(180.4756 0 0 -180.4756 91937.875 78567.5391)">
			<stop  offset="0" style="stop-color:#96CBFF"/>
			<stop  offset="1" style="stop-color:#5599FF"/>
		</linearGradient>
		<rect x="195.378" y="52.871" clip-path="url(#SVGID_15_)" fill="url(#SVGID_16_)" width="37.363" height="37.364"/>
	</g>
	<g clip-path="url(#SVGID_2_)">
		<defs>
			<path id="SVGID_17_" d="M153.585,64.09c-2.203-1.52-2.757-4.537-1.237-6.74c1.52-2.203,4.537-2.757,6.74-1.238
				c2.203,1.52,2.757,4.537,1.237,6.74c-0.939,1.363-2.454,2.094-3.993,2.095C155.384,64.947,154.426,64.669,153.585,64.09
				 M154.387,49.484l-1.943,0.357l-0.03,1.819c-0.776,0.36-1.508,0.828-2.17,1.402l-1.67-0.716l-1.122,1.626l-1.122,1.627
				l1.263,1.307c-0.301,0.823-0.479,1.673-0.54,2.525l-1.688,0.675l0.356,1.944l0.357,1.944l1.818,0.031
				c0.359,0.775,0.828,1.507,1.401,2.169l-0.716,1.671l1.627,1.122l1.626,1.123l1.308-1.264c0.822,0.301,1.673,0.479,2.525,0.54
				l0.675,1.689l1.943-0.357l1.944-0.357l0.031-1.818c0.775-0.36,1.507-0.829,2.169-1.402l1.67,0.716l1.122-1.626l1.122-1.627
				l-1.263-1.307c0.301-0.823,0.479-1.673,0.54-2.525l1.689-0.675l-0.357-1.944l-0.356-1.943l-1.819-0.031
				c-0.359-0.775-0.828-1.507-1.402-2.169l0.718-1.67l-1.627-1.123l-1.627-1.122l-1.308,1.263c-0.822-0.301-1.672-0.479-2.525-0.54
				l-0.675-1.689L154.387,49.484z"/>
		</defs>
		<clipPath id="SVGID_18_">
			<use xlink:href="#SVGID_17_"  overflow="visible"/>
		</clipPath>
		
			<linearGradient id="SVGID_19_" gradientUnits="userSpaceOnUse" x1="-506.2964" y1="434.1895" x2="-506.0891" y2="434.1895" gradientTransform="matrix(17.5399 120.4922 120.4922 -17.5399 -43281.3203 68668.9922)">
			<stop  offset="0" style="stop-color:#96CBFF"/>
			<stop  offset="0" style="stop-color:#5599FF"/>
			<stop  offset="1" style="stop-color:#5599FF"/>
		</linearGradient>
		<polygon clip-path="url(#SVGID_18_)" fill="url(#SVGID_19_)" points="166.854,45.999 170.438,70.619 145.818,74.203 
			142.234,49.583 		"/>
	</g>
	<g clip-path="url(#SVGID_2_)">
		<defs>
			<rect id="SVGID_20_" width="265" height="149.063"/>
		</defs>
		<clipPath id="SVGID_21_">
			<use xlink:href="#SVGID_20_"  overflow="visible"/>
		</clipPath>
		<path clip-path="url(#SVGID_21_)" fill="#6770B5" d="M165.794,90.418h23.689c-0.043-0.277-0.082-0.711-0.119-1.122
			c-0.228-2.469-0.373-4.106-0.373-4.106s-19.424-9.631-21.554-3.299c-0.684,2.032-1.168,4.573-1.502,7.405
			C165.885,89.722,165.838,90.154,165.794,90.418"/>
		<path clip-path="url(#SVGID_21_)" fill="#FFC655" d="M185.842,57.683c0,0,1.083,6.444,1.957,10.701v0
			c0.354,1.726,0.674,3.092,0.872,3.522c0.25,0.542,2.284,2.726,4.772,5.288c4.368,4.497,10.139,10.159,10.139,10.159l2.256-4.282
			c0,0-5.125-6.009-8.601-10.019c-1.608-1.855-2.862-3.283-3.092-3.488c-0.727-0.65-1.57-7.054-2.755-12.33
			c-1.186-5.276-3.561-8.192-3.561-8.192L185.842,57.683z"/>
		<path clip-path="url(#SVGID_21_)" fill="#EEA886" d="M193.443,77.194c4.368,4.497,10.139,10.159,10.139,10.159l2.256-4.282
			c0,0-5.125-6.009-8.601-10.019C196.173,73.575,194.218,74.821,193.443,77.194"/>
		<path clip-path="url(#SVGID_21_)" fill="#FFC655" d="M166.191,86.519c-0.161,0.573,21.935,0.81,21.935,0.81
			s-0.938-6.893-1.474-8.499c-0.535-1.605,1.521-11.205,1.865-14.34c0.276-2.508,0.966-13.732-0.688-15.447
			c-1.729-1.792-7.953-3.671-7.953-3.671l-9.074,0.337c0,0-1.498,0.313-2.568,0.81s-7.192,2.678-8.187,5.736
			c-0.994,3.059,6.108,12.893,6.108,12.893s0.014,0.442,0.035,1.167l0,0c0.027,0.966,0.068,2.434,0.105,4.026
			c0.047,2.062,0.089,4.333,0.089,5.991C166.386,80.231,166.353,85.945,166.191,86.519"/>
		<path clip-path="url(#SVGID_21_)" fill="#EEA886" d="M177.387,25.656c0,0,7.877-1.777,6.078,8.136
			c-1.8,9.914-3.693,10.692-8.446,8.641c-4.752-2.051-4.326-8.402-4.565-11.517C170.214,27.802,174.874,25.764,177.387,25.656"/>
		<path clip-path="url(#SVGID_21_)" fill="#EEA886" d="M179.472,47.917c0,0-3.489,3.698-9.002,0.337c0,0,1.232-8.015,0.584-11.919
			c-0.649-3.904,7.193,6.049,7.193,6.049c-0.104,0.054-0.172,0.426-0.188,0.957c-0.013,0.449,0.011,1.011,0.083,1.589
			C178.304,46.227,178.708,47.597,179.472,47.917"/>
		<path clip-path="url(#SVGID_21_)" fill="#EEA886" d="M173.163,32.478c-0.104-0.875-1.833-1.195-1.973,0.116
			c-0.139,1.311,0.786,3.612,1.442,3.386C173.288,35.753,173.306,33.684,173.163,32.478"/>
		<path clip-path="url(#SVGID_21_)" fill="#3A3F47" d="M170.837,36.003c0,0,0.203-3.124,1.344-3.221
			c1.141-0.098,1.316,1.16,1.316,1.16l1.152,0.217c0,0-0.364-2.737,0.774-3.216c1.14-0.478,7.381,1.507,8.295,0.704
			c0.914-0.803,0.484-6.356-1.169-7.117c-1.654-0.76-6.221-2.462-9.567-0.198c0,0-2.608-0.297-2.995,1.808
			C169.601,28.246,170.128,34.438,170.837,36.003"/>
		<path clip-path="url(#SVGID_21_)" fill="#A77860" d="M178.142,44.929c-5.688-1.754-6.116-5.179-6.122-5.232
			c1.873,3.218,6.04,3.644,6.04,3.644C178.046,43.79,178.07,44.352,178.142,44.929"/>
		<path clip-path="url(#SVGID_21_)" fill="#EEA886" d="M168.142,46.562c0,0,4.165,8.292,10.895,7.757
			c6.729-0.536,1.146-8.87,0.841-8.947C179.541,45.287,172.976,43.651,168.142,46.562"/>
		<path clip-path="url(#SVGID_21_)" fill="#FFC655" d="M159.001,77.565c0.307,0.355,4.36,1.986,8.939,3.75l0,0
			c6.256,2.41,13.313,4.689,13.313,4.689l1.606-3.443c0,0-7.39-4.016-12.383-6.831c-2.359-1.331-4.183-2.393-4.44-2.639
			c-0.803-0.765-1.011-1.991-0.421-4.129c0.591-2.139,1.95-11.968,2.104-13.115c0.152-1.146-0.383-4.205-3.25-4.358
			c-2.868-0.153-4.327,0.657-4.327,0.657s-0.721,0.299-1.256,7.258C158.351,66.362,158.274,76.725,159.001,77.565"/>
		<path clip-path="url(#SVGID_21_)" fill="#C79A42" d="M166.191,66.315L166.191,66.315c0.027,0.966,0.068,2.434,0.105,4.026
			c2.799-6.86,1.182-12.335,1.154-12.428C167.754,59.775,166.214,66.223,166.191,66.315"/>
		<path clip-path="url(#SVGID_21_)" fill="#C79A42" d="M187.799,68.384L187.799,68.384c0.354,1.726,0.674,3.093,0.872,3.523
			c0.956-4.626,0.096-10.549,0.096-10.549C188.636,64.187,187.799,68.384,187.799,68.384"/>
		<path clip-path="url(#SVGID_21_)" fill="#EEA886" d="M167.94,81.315L167.94,81.315c6.256,2.41,15.079,4.424,15.079,4.424
			l1.249-3.005c0,0-8.799-4.188-13.792-7.004C170.477,75.73,168.66,76.615,167.94,81.315"/>
		<path clip-path="url(#SVGID_21_)" fill="#EEA886" d="M184.269,82.734c0,0,1.83-0.285,3.097-0.58
			c0.979-0.228,3.413,0.087,4.033,0.715s2.592,5.007,2.965,5.273c0.373,0.268-0.19,0.886-0.846,0.575c0,0-0.497,0.864-1.98,0.147
			c-1.484-0.718-2.597-1.231-3.374-1.508c-0.777-0.275-5.304-1.667-5.304-1.667S183.103,82.268,184.269,82.734"/>
		<path clip-path="url(#SVGID_21_)" fill="#EEA886" d="M190.746,83.24c0,0,1.176,0.568,1.482,0.821
			c0.308,0.254,1.552,1.185,1.853,1.404c0.302,0.219-0.454,0.842-2.679-0.122C189.178,84.381,190.746,83.24,190.746,83.24"/>
		<polygon clip-path="url(#SVGID_21_)" fill="#254380" points="190.849,70.372 188.8,89.427 215.776,89.427 217.825,70.372 		"/>
		<rect x="186.652" y="87.712" clip-path="url(#SVGID_21_)" fill="#254380" width="4.506" height="1.715"/>
		<polygon clip-path="url(#SVGID_21_)" fill="#C5C6CF" points="161.195,37.823 153.318,37.221 153.221,41.829 160.313,41.914 		"/>
		<polygon clip-path="url(#SVGID_21_)" fill="#E2E3ED" points="160.858,37.389 153.318,37.221 153.221,41.829 160.313,41.914 		"/>
		<path clip-path="url(#SVGID_21_)" fill="#EEA987" d="M161.042,32.026c0,0-0.181,0.195-0.251,0.107
			c-0.069-0.088-0.147-0.212-0.147-0.212L161.042,32.026z"/>
		<path clip-path="url(#SVGID_21_)" fill="#EEA987" d="M161.419,30.146l-0.243,1.069c0.072-0.086,0.198-0.225,0.238-0.183
			c0.057,0.06-0.139,0.351-0.174,0.476c-0.031,0.115-0.073,0.294-0.125,0.401l-0.089,0.174l-0.383-0.162
			c0,0,0.026-0.764,0.043-0.936c0.027-0.28,0.573-0.88,0.625-0.885C161.406,30.09,161.419,30.146,161.419,30.146"/>
		<path clip-path="url(#SVGID_21_)" fill="#2D325E" d="M153.587,48.792c0,0-0.111,0.26-0.204,0.363s-0.445,0.284-0.451,0.592
			c-0.006,0.333,0.588,0.248,0.819,0.238c0.232-0.009,0.252-0.187,0.352-0.375s0.197-0.155,0.218-0.307s-0.068-0.495-0.068-0.495
			L153.587,48.792z"/>
		<path clip-path="url(#SVGID_21_)" fill="#2D325E" d="M158.74,50.475c0,0,0.318,0.343,0.646,0.417
			c0.327,0.075,0.555,0.168,0.556,0.363c0,0.195-0.947,0.311-1.32,0.111c-0.556-0.299-0.614-0.212-0.674-0.359
			c-0.061-0.147,0.08-0.537,0.077-0.583C158.021,50.366,158.74,50.475,158.74,50.475"/>
		<path clip-path="url(#SVGID_21_)" fill="#3F4685" d="M157.996,40.677c0,0,0.31,2.466,0.438,3.301
			c0.15,0.975,0.195,1.78,0.234,2.285c0.05,0.634,0.118,3.967,0.156,4.153c0.037,0.186-0.889,0.083-0.889,0.083
			s-0.62-4.329-0.781-5.005c-0.149-0.63-0.552-3.226-0.697-3.056c-0.146,0.17-1.868,2.042-1.98,2.536s-0.189,3.825-0.189,3.825
			s-0.659,0.315-0.854,0.157c0,0-0.4-2.924-0.321-3.852c0.03-0.354,1.077-3.325,1.695-4.884
			C155.135,39.394,157.996,40.677,157.996,40.677"/>
		<path clip-path="url(#SVGID_21_)" fill="#FCCCA2" d="M157.072,34.759c0,0,0.896,0.197,1.001,0.292
			c0.114,0.102,0.307,1.087,0.315,1.36c0.009,0.274-0.126,1.416-0.246,1.84c-0.121,0.424-0.121,2.646-0.073,2.997
			c0,0-1.804,0.33-3.577,0.078c0,0,0.33-1.926,0.266-2.51c-0.082-0.749-0.28-2.473-0.28-2.473s0.251-1.156,0.411-1.288
			c0.159-0.132,1.262-0.336,1.262-0.336L157.072,34.759z"/>
		<path clip-path="url(#SVGID_21_)" fill="#EEA886" d="M156.735,31.981c0,0,1.084-0.386,0.999,1.047s-0.339,1.576-1.047,1.367
			c-0.707-0.208-0.756-1.114-0.843-1.551C155.757,32.408,156.382,32.04,156.735,31.981"/>
		<path clip-path="url(#SVGID_21_)" fill="#EEA886" d="M157.247,34.989c0,0-0.565,0.448-1.098-0.27c0,0,0.031-0.577-0.127-1.118
			c-0.159-0.541,1.121,0.732,1.121,0.732c-0.014,0.009-0.018,0.063-0.01,0.139c0.005,0.063,0.019,0.143,0.038,0.223
			C157.218,34.875,157.207,34.843,157.247,34.989"/>
		<path clip-path="url(#SVGID_21_)" fill="#163342" d="M155.985,33.558c0,0,0.002-0.383,0.162-0.417
			c0.159-0.033,0.239,0.189,0.239,0.189l0.128-0.005c0,0-0.11-0.39,0.043-0.477c0.152-0.087,1.061,0.001,1.176-0.128
			s-0.04-0.907-0.287-0.986s-0.923-0.242-1.357,0.136c0,0-0.385-0.002-0.39,0.459C155.696,32.634,155.858,33.348,155.985,33.558"/>
		<path clip-path="url(#SVGID_21_)" fill="#A77860" d="M157.172,34.695c-0.834-0.15-0.954-0.627-0.955-0.635
			c0.32,0.423,0.917,0.412,0.917,0.412C157.139,34.535,157.152,34.614,157.172,34.695"/>
		<path clip-path="url(#SVGID_21_)" fill="#EEA886" d="M156.329,32.98c-0.046-0.127-0.315-0.114-0.29,0.086s0.244,0.512,0.334,0.455
			S156.393,33.156,156.329,32.98"/>
		<path clip-path="url(#SVGID_21_)" fill="#EEA886" d="M155.858,34.776c0,0,0.493,1.029,1.239,0.955s0.322-0.792,0.253-0.907
			C157.351,34.824,156.907,34.532,155.858,34.776"/>
		<path clip-path="url(#SVGID_21_)" fill="#FCCCA2" d="M160.568,34.007c0.215-0.407,0.696-1.982,0.696-1.982l-0.653-0.145
			c0,0-0.357,0.792-0.529,1.34c-0.085,0.268-0.196,0.529-0.221,0.572c-0.024,0.042-1.149,0.873-1.271,0.934
			c-0.123,0.061-0.591,0.217-0.817,0.44c-0.226,0.224-0.121,0.536-0.121,0.536c0.467,0.615,1.35-0.167,1.35-0.167
			S160.266,34.578,160.568,34.007"/>
		<path clip-path="url(#SVGID_21_)" fill="#FCCCA2" d="M159.462,35.165c0,0-1.046,1.116-1.087,1.533c-0.029,0.298-0.2-0.9-0.2-0.9
			L159.462,35.165z"/>
		
			<rect x="152.61" y="36.995" transform="matrix(0.9999 0.012 -0.012 0.9999 0.4844 -1.8747)" clip-path="url(#SVGID_21_)" fill="#6B5ADE" width="7.732" height="4.872"/>
		<path clip-path="url(#SVGID_21_)" fill="#EFAA88" d="M153.78,42.081c0,0-0.035-0.09-0.032-0.137c0,0,0.014-0.084,0.019-0.146
			c0.002-0.02,0.004-0.036,0.003-0.047c-0.002-0.046-0.02-0.146,0.007-0.257c0.026-0.111,0.16-0.495,0.16-0.495l0.347,0.056
			l0.303-0.037c0,0,0.217,0.659,0.204,0.766c-0.001,0.011-0.003,0.021-0.005,0.031c-0.02,0.089-0.071,0.146-0.088,0.192
			c-0.005,0.017-0.074,0.179-0.125,0.194c-0.07,0.021-0.127,0.007-0.165-0.025c0,0-0.14,0.035-0.227-0.006
			c0,0-0.127,0.036-0.221-0.046C153.96,42.124,153.826,42.146,153.78,42.081"/>
		<path clip-path="url(#SVGID_21_)" fill="#FCCCA2" d="M155.383,35.037c0.117,0.046,0.238,0.333,0.139,0.89
			c-0.106,0.598-0.308,0.851-0.388,0.99c-0.082,0.139-0.584,1.066-0.584,1.204c0.001,0.36-0.02,1.308-0.009,1.381
			c0.018,0.124,0.081,1.555,0.081,1.555l-0.762,0.174c0,0-0.13-1.614-0.191-2.102c-0.025-0.196-0.077-0.733-0.004-1.267
			c0.072-0.514,0.459-1.649,0.511-1.74C154.227,36.033,154.608,34.726,155.383,35.037"/>
		<polygon clip-path="url(#SVGID_21_)" fill="#D6D6D6" points="144.272,54.483 140.525,48.458 142.457,49.363 		"/>
		<polygon clip-path="url(#SVGID_21_)" fill="#E8E8E8" points="144.272,54.483 144.086,50.878 142.707,50.068 		"/>
		<polygon clip-path="url(#SVGID_21_)" fill="#C2C2C2" points="141.387,49.843 140.901,50.466 144.272,54.483 		"/>
		<g opacity="0.61" clip-path="url(#SVGID_21_)">
			<g>
				<defs>
					<rect id="SVGID_22_" x="135.017" y="64.494" width="28.003" height="20.106"/>
				</defs>
				<clipPath id="SVGID_23_">
					<use xlink:href="#SVGID_22_"  overflow="visible"/>
				</clipPath>
				<path clip-path="url(#SVGID_23_)" fill="#DAE8F5" d="M163.02,66.435v16.224c0,1.072-0.869,1.941-1.941,1.941h-24.12
					c-1.072,0-1.941-0.869-1.941-1.941V66.435c0-1.072,0.869-1.941,1.941-1.941h24.12C162.15,64.494,163.02,65.363,163.02,66.435"/>
			</g>
		</g>
		<path clip-path="url(#SVGID_21_)" fill="#78C2FF" d="M148.004,69.571c-0.86-2.404-3.158-3.882-5.581-3.809
			c-0.586,0.018-1.18,0.126-1.763,0.334c-1.764,0.631-3.029,2.037-3.549,3.697c-0.36,1.15-0.362,2.424,0.074,3.647
			c0.044,0.121,0.092,0.241,0.142,0.358c0.23,0.53,0.532,1.009,0.891,1.43c1.503,1.768,3.998,2.515,6.312,1.687
			C147.517,75.846,149.072,72.559,148.004,69.571 M144.045,75.561c-1.734,0.62-3.604,0.061-4.731-1.265
			c-0.269-0.315-0.495-0.674-0.668-1.072c-0.038-0.088-0.073-0.177-0.105-0.269c-0.328-0.917-0.326-1.872-0.057-2.734
			c0.39-1.245,1.339-2.299,2.661-2.772c0.437-0.156,0.882-0.237,1.321-0.25c1.816-0.055,3.539,1.053,4.185,2.855
			C147.451,72.294,146.285,74.759,144.045,75.561"/>
		<path clip-path="url(#SVGID_21_)" fill="#1A598C" d="M138.483,70.221l-1.372-0.428c0.52-1.66,1.785-3.065,3.549-3.697
			c0.583-0.208,1.177-0.316,1.764-0.334l0.042,1.438c-0.439,0.013-0.885,0.095-1.321,0.25
			C139.821,67.923,138.873,68.977,138.483,70.221"/>
		<path clip-path="url(#SVGID_21_)" fill="#2273B5" d="M138.646,73.224l-1.319,0.574c-0.05-0.117-0.098-0.237-0.142-0.358
			c-0.437-1.223-0.435-2.497-0.074-3.647l1.372,0.428c-0.271,0.863-0.271,1.817,0.057,2.734
			C138.572,73.046,138.607,73.136,138.646,73.224"/>
		<path clip-path="url(#SVGID_21_)" fill="#4DA8F2" d="M138.218,75.228c-0.358-0.421-0.66-0.9-0.891-1.43l1.319-0.574
			c0.172,0.397,0.398,0.756,0.667,1.072L138.218,75.228z"/>
		<path clip-path="url(#SVGID_21_)" fill="#6EB2EB" d="M138.575,83.488c1.17,0.554,2.523,0.26,3.365-0.635
			c0.204-0.217,0.377-0.468,0.512-0.752c0.406-0.858,0.355-1.814-0.053-2.597c-0.283-0.541-0.739-0.998-1.334-1.279
			c-0.059-0.028-0.119-0.055-0.179-0.078c-0.272-0.107-0.553-0.171-0.832-0.193c-1.172-0.095-2.333,0.532-2.865,1.657
			C136.502,81.065,137.122,82.801,138.575,83.488 M137.848,79.923c0.399-0.844,1.271-1.313,2.148-1.242
			c0.21,0.017,0.42,0.064,0.624,0.146c0.045,0.018,0.09,0.037,0.134,0.058c0.446,0.211,0.787,0.554,1,0.96
			c0.307,0.586,0.345,1.303,0.039,1.946c-0.1,0.213-0.23,0.401-0.383,0.563c-0.632,0.671-1.646,0.892-2.523,0.477
			C137.798,82.314,137.332,81.013,137.848,79.923"/>
		<path clip-path="url(#SVGID_21_)" fill="#1A598C" d="M141.754,79.844l0.646-0.338c0.408,0.78,0.459,1.737,0.053,2.596
			c-0.135,0.284-0.308,0.535-0.512,0.752l-0.53-0.5c0.152-0.162,0.283-0.351,0.383-0.563
			C142.099,81.146,142.061,80.43,141.754,79.844"/>
		<path clip-path="url(#SVGID_21_)" fill="#2273B5" d="M140.62,78.826l0.267-0.679c0.06,0.024,0.12,0.05,0.179,0.078
			c0.595,0.281,1.051,0.738,1.334,1.28l-0.646,0.338c-0.213-0.406-0.554-0.749-1-0.96C140.71,78.863,140.665,78.844,140.62,78.826"
			/>
		<path clip-path="url(#SVGID_21_)" fill="#4DA8F2" d="M140.055,77.954c0.279,0.022,0.56,0.086,0.832,0.193l-0.267,0.679
			c-0.205-0.081-0.414-0.129-0.624-0.146L140.055,77.954z"/>
		<g opacity="0.79" clip-path="url(#SVGID_21_)">
			<g>
				<defs>
					<rect id="SVGID_24_" x="150.399" y="64.494" width="12.62" height="20.106"/>
				</defs>
				<clipPath id="SVGID_25_">
					<use xlink:href="#SVGID_24_"  overflow="visible"/>
				</clipPath>
				<path clip-path="url(#SVGID_25_)" fill="#91C7FF" d="M163.02,66.435v16.224c0,1.072-0.869,1.941-1.941,1.941h-10.679V64.494
					h10.679C162.15,64.494,163.02,65.363,163.02,66.435"/>
			</g>
		</g>
		<g opacity="0.62" clip-path="url(#SVGID_21_)">
			<g>
				<defs>
					<rect id="SVGID_26_" x="152.021" y="66.58" width="9.377" height="1.022"/>
				</defs>
				<clipPath id="SVGID_27_">
					<use xlink:href="#SVGID_26_"  overflow="visible"/>
				</clipPath>
				<path clip-path="url(#SVGID_27_)" fill="#FFFFFF" d="M161.242,67.602h-9.065c-0.086,0-0.155-0.07-0.155-0.156v-0.71
					c0-0.086,0.069-0.156,0.155-0.156h9.065c0.086,0,0.156,0.07,0.156,0.156v0.71C161.398,67.532,161.328,67.602,161.242,67.602"/>
			</g>
		</g>
		<g opacity="0.62" clip-path="url(#SVGID_21_)">
			<g>
				<defs>
					<rect id="SVGID_28_" x="152.021" y="68.771" width="9.377" height="1.021"/>
				</defs>
				<clipPath id="SVGID_29_">
					<use xlink:href="#SVGID_28_"  overflow="visible"/>
				</clipPath>
				<path clip-path="url(#SVGID_29_)" fill="#4391D1" d="M161.242,69.793h-9.065c-0.086,0-0.155-0.07-0.155-0.156v-0.71
					c0-0.086,0.069-0.156,0.155-0.156h9.065c0.086,0,0.156,0.07,0.156,0.156v0.71C161.398,69.723,161.328,69.793,161.242,69.793"/>
			</g>
		</g>
		<g opacity="0.62" clip-path="url(#SVGID_21_)">
			<g>
				<defs>
					<rect id="SVGID_30_" x="152.021" y="71.285" width="9.377" height="11.552"/>
				</defs>
				<clipPath id="SVGID_31_">
					<use xlink:href="#SVGID_30_"  overflow="visible"/>
				</clipPath>
				<path clip-path="url(#SVGID_31_)" fill="#4391D1" d="M160.875,82.837h-8.33c-0.289,0-0.523-0.234-0.523-0.523V71.808
					c0-0.289,0.234-0.523,0.523-0.523h8.329c0.29,0,0.524,0.234,0.524,0.523v10.505C161.398,82.603,161.164,82.837,160.875,82.837"
					/>
			</g>
		</g>
		<path clip-path="url(#SVGID_21_)" fill="#6EB2EB" d="M147.615,79.657h-3.654c-0.09,0-0.162-0.072-0.162-0.162v-0.736
			c0-0.09,0.072-0.162,0.162-0.162h3.654c0.09,0,0.162,0.072,0.162,0.162v0.736C147.777,79.585,147.705,79.657,147.615,79.657"/>
		<path clip-path="url(#SVGID_21_)" fill="#4DA8F2" d="M147.615,81.388h-3.654c-0.09,0-0.162-0.073-0.162-0.162v-0.737
			c0-0.089,0.072-0.162,0.162-0.162h3.654c0.09,0,0.162,0.073,0.162,0.162v0.737C147.777,81.314,147.705,81.388,147.615,81.388"/>
		<path clip-path="url(#SVGID_21_)" fill="#2273B5" d="M147.615,83.117h-3.654c-0.09,0-0.162-0.072-0.162-0.162v-0.736
			c0-0.09,0.072-0.163,0.162-0.163h3.654c0.09,0,0.162,0.073,0.162,0.163v0.736C147.777,83.045,147.705,83.117,147.615,83.117"/>
		<rect x="144.715" y="89.388" clip-path="url(#SVGID_21_)" fill="#FFB855" width="73.319" height="1.161"/>
		<path clip-path="url(#SVGID_21_)" fill="#EEA886" d="M156.207,74.299c0,0-0.173-0.302,0.101-1.11
			c0.265-0.781,1.179-0.71,1.47-0.21c0.291,0.501,0.192,0.812-0.235,1.377C157.114,74.922,156.384,74.558,156.207,74.299"/>
		<path clip-path="url(#SVGID_21_)" fill="#EEA886" d="M158.331,88.203c0,0,0.046,0.332,0.052,0.382s0.503-0.029,0.503-0.029
			l0.041-0.396C158.927,88.16,158.394,88.156,158.331,88.203"/>
		<path clip-path="url(#SVGID_21_)" fill="#22253B" d="M158.377,88.543c0,0-0.158,0.2-0.311,0.287s-0.393,0.121-0.482,0.212
			c-0.065,0.065-0.237,0.346,0.396,0.34s0.939,0.04,1.008-0.067c0.067-0.108-0.099-0.794-0.099-0.794S158.734,88.564,158.377,88.543
			"/>
		<path clip-path="url(#SVGID_21_)" fill="#EEA886" d="M154.884,88.203c0,0,0.045,0.332,0.051,0.382s0.504-0.029,0.504-0.029
			l0.04-0.396C155.479,88.16,154.946,88.156,154.884,88.203"/>
		<path clip-path="url(#SVGID_21_)" fill="#22253B" d="M154.93,88.543c0,0-0.158,0.2-0.311,0.287s-0.714,0.159-0.805,0.249
			c-0.065,0.065-0.174,0.327,0.719,0.303c0.633-0.018,0.938,0.04,1.007-0.067c0.067-0.108-0.099-0.794-0.099-0.794
			S155.245,88.556,154.93,88.543"/>
		<path clip-path="url(#SVGID_21_)" fill="#2D314F" d="M158.164,79.939c0,0,0.255,0.793,0.222,1.477
			c-0.034,0.685,0.132,1.433,0.199,2.146c0.076,0.796,0.385,2.682,0.396,3.107c0.012,0.426-0.048,1.786-0.048,1.786l-0.618,0.015
			c0,0-0.52-3.295-0.653-3.632c-0.135-0.336-0.802-2.733-0.824-3.002C156.814,81.567,158.164,79.939,158.164,79.939"/>
		<path clip-path="url(#SVGID_21_)" fill="#2D314F" d="M155.6,79.856c0,0-0.375,2.099-0.42,2.517s-0.074,2.025-0.097,2.287
			c-0.023,0.261-0.149,3.422-0.27,3.811h0.689c0,0,0.708-2.298,0.708-3.385c0-1.088,0.469-2.364,0.771-3.081
			c0.303-0.718,0.995-0.734,1.182-2.065C158.164,79.939,155.852,79.435,155.6,79.856"/>
		<path clip-path="url(#SVGID_21_)" fill="#EEA886" d="M156.456,74.513c0,0,0.078,0.227,0,0.388
			c-0.077,0.162,0.994,0.065,0.994,0.065s-0.049-0.334,0.092-0.608C157.682,74.083,156.456,74.513,156.456,74.513"/>
		<path clip-path="url(#SVGID_21_)" fill="#2B3B57" d="M158.214,80.112c0,0-0.386,0.396-2.648-0.062l0.034-0.194l2.572,0.097
			L158.214,80.112z"/>
		<path clip-path="url(#SVGID_21_)" fill="#EEA886" d="M156.295,74.953c0,0-0.396,0.041-0.509,0.062
			c-0.113,0.021-0.875-0.136-1.031-0.152c-0.156-0.016-0.821-0.472-0.843-0.526c-0.021-0.054-0.405-1.025-0.427-1.235
			s-0.374-0.102-0.344,0.043c0.057,0.271,0.129,0.928,0.169,1.118c0.043,0.206,0.158,0.671,0.223,0.729
			c0.064,0.057,0.664,0.513,1.251,0.707c0.587,0.194,1.028,0.479,1.028,0.479h2.893c0,0,1.125-1.607,1.149-1.85
			c0.024-0.242-0.786-1.853-0.947-2.055s-0.396,0.066-0.396,0.066s0.484,1.42,0.549,1.622s-0.563,1.089-0.735,1.092
			c-0.172,0.003-0.614-0.054-0.812-0.062c-0.196-0.008-0.403-0.094-0.403-0.094L156.295,74.953z"/>
		<path clip-path="url(#SVGID_21_)" fill="#FFC655" d="M155.048,76.027c0,0,0.354,0.235,0.387,0.639
			c0.032,0.404,0.161,1.043,0.226,1.26c0.065,0.219-0.057,1.802-0.072,1.914c-0.017,0.113,2.238,0.382,2.584,0.113
			c0,0,0.098-1.478,0.138-1.897s0.234-1.438,0.299-1.575c0.064-0.137,0.848-1.236,0.88-1.381c0,0-0.405-0.646-0.695-0.654
			c0,0-0.462,0.541-0.612,0.565c-0.151,0.024-1.074-0.145-1.074-0.146c0,0-0.101,0.138-0.636-0.024c0,0-0.638,0.072-0.741,0.085
			c-0.126,0.016-0.999-0.109-0.999-0.109s-0.351,0.591-0.289,0.89L155.048,76.027z"/>
		<path clip-path="url(#SVGID_21_)" fill="#EEA886" d="M153.506,73.228c0,0-0.079-0.374,0.016-0.481
			c0.055-0.061,0.185-0.223,0.196-0.247c0.013-0.024,0.152-0.104,0.152-0.143c0-0.039-0.137-0.086-0.256,0.023
			c-0.119,0.11-0.193,0.134-0.241,0.122s-0.116-0.408-0.122-0.506s-0.044-0.357-0.105-0.339c-0.062,0.018-0.059,0.13-0.059,0.13
			s-0.071-0.196-0.119-0.157c-0.047,0.039-0.041,0.134-0.041,0.134s-0.09-0.11-0.113-0.03c-0.024,0.081,0,0.152,0,0.152
			s-0.093-0.051-0.098,0.074c-0.007,0.125,0.026,0.491,0.092,0.622s0.311,0.474,0.34,0.607
			C153.177,73.323,153.506,73.228,153.506,73.228"/>
		<path clip-path="url(#SVGID_21_)" fill="#EEA886" d="M158.591,72.57c0,0-0.269-0.452-0.36-0.493s-0.221-0.063-0.334-0.144
			c-0.113-0.081-0.263-0.148-0.255-0.175c0.009-0.027,0.142-0.017,0.284,0.045c0.143,0.063,0.206,0.032,0.219,0
			c0.014-0.033-0.076-0.261-0.119-0.314c-0.043-0.054-0.35-0.363-0.299-0.409c0.052-0.045,0.251,0.124,0.283,0.159
			c0,0-0.159-0.334-0.098-0.351c0.063-0.016,0.179,0.103,0.179,0.103s-0.014-0.286,0.293,0.177c0,0-0.064-0.153,0.029-0.102
			c0.095,0.051,0.186,0.339,0.216,0.484c0.029,0.146,0.164,0.608,0.278,0.72S158.591,72.57,158.591,72.57"/>
		<path clip-path="url(#SVGID_21_)" fill="#353A3D" d="M157.542,74.357c0,0-0.142,0.012-0.443-0.092s-0.324-0.631-0.39-0.569
			c-0.133,0.127-0.259,0.04-0.309-0.036c0,0,0.147-0.194,0.079-0.288c-0.068-0.093-0.18-0.162-0.18-0.162s0.212-1.022,1.177-0.556
			C158.608,73.201,157.542,74.357,157.542,74.357"/>
		<path clip-path="url(#SVGID_21_)" fill="#D4D8E8" d="M156.456,74.9l0.034-0.148c0,0,0.616-0.012,0.952,0.037l0.036,0.176
			C157.479,74.965,157.048,75.16,156.456,74.9"/>
		<path clip-path="url(#SVGID_21_)" fill="#EEA886" d="M156.608,73.567c0.057-0.093,0.263-0.156,0.287,0.107
			c0.019,0.204-0.37,0.428-0.373,0.237C156.519,73.721,156.571,73.629,156.608,73.567"/>
		<path clip-path="url(#SVGID_21_)" fill="#E55353" d="M153.49,73.143c0,0-0.222,0.005-0.329,0.103c0,0-0.008,0.062,0.018,0.111
			c0,0,0.192-0.09,0.341-0.107C153.52,73.25,153.517,73.168,153.49,73.143"/>
		<path clip-path="url(#SVGID_21_)" fill="#353A3D" d="M153.229,73.198c-0.021,0.048,0.003,0.105,0.051,0.125
			c0.049,0.021,0.105-0.002,0.126-0.051c0.021-0.049-0.003-0.104-0.052-0.125C153.306,73.127,153.249,73.149,153.229,73.198"/>
		<path clip-path="url(#SVGID_21_)" fill="#BBD070" d="M221.42,85.188c0,0-6.279,5.139-3.753,9.695
			c2.525,4.558,4.146,0.853,4.146,0.853s1.885,0.727-0.576-4.843C220.076,88.268,221.42,85.188,221.42,85.188"/>
		<path clip-path="url(#SVGID_21_)" fill="#97A43C" d="M211.035,78.327c0,0-4.872,4.927,0.568,12.663s4.224,11.519,4.224,11.519
			S225.111,90.464,211.035,78.327"/>
		<path clip-path="url(#SVGID_21_)" fill="#48753A" d="M217.526,100.29c2.743,0.771,0.912-7.378-3.08-10.161
			c-3.993-2.782-7.713-3.304-9.875-5.857C204.571,84.271,204.015,96.487,217.526,100.29"/>
		<rect x="196.234" y="111.815" clip-path="url(#SVGID_21_)" fill="#FFB855" width="66.505" height="1.161"/>
		<path clip-path="url(#SVGID_21_)" fill="#FFCB55" d="M194.195,118.97c0,0-0.622,1.055-0.885,1.228
			c-0.356,0.233-0.133,0.47,0.036,0.471c0.17,0,1.034,0.062,1.225-0.154c0.191-0.217,0.285-0.865,0.463-1.034
			c0.178-0.17,0.36-0.844-0.086-1.008C194.553,118.327,194.195,118.97,194.195,118.97"/>
		<path clip-path="url(#SVGID_21_)" fill="#C98E72" d="M194.465,118.506c0,0-0.713,1.235-0.835,1.418
			c-0.123,0.183,0.23,0.182,0.45,0.096c0.22-0.087,0.771-0.973,0.851-1.135c0.095-0.192,0.017-0.413,0.017-0.413L194.465,118.506z"
			/>
		<polygon clip-path="url(#SVGID_21_)" fill="#FFCB55" points="195.187,119.17 195.022,120.437 194.936,120.441 194.962,119.53 		
			"/>
		<path clip-path="url(#SVGID_21_)" fill="#FFCB55" d="M200.366,118.97c0,0-0.622,1.055-0.885,1.228
			c-0.356,0.233-0.133,0.47,0.036,0.471c0.169,0,1.034,0.062,1.225-0.154c0.19-0.217,0.285-0.865,0.463-1.034
			c0.177-0.17,0.366-0.861-0.087-1.008C200.722,118.344,200.366,118.97,200.366,118.97"/>
		<path clip-path="url(#SVGID_21_)" fill="#DE9D7D" d="M200.599,118.509c0,0-0.676,1.232-0.799,1.415
			c-0.122,0.183,0.231,0.183,0.451,0.096s0.771-0.973,0.851-1.135c0.095-0.192,0.017-0.413,0.017-0.413L200.599,118.509z"/>
		<polygon clip-path="url(#SVGID_21_)" fill="#FFCB55" points="201.357,119.17 201.193,120.437 201.105,120.441 201.133,119.53 		
			"/>
		<path clip-path="url(#SVGID_21_)" fill="#EEA886" d="M203.127,109.37l-5.631,2.565c0,0-0.629,0.204-0.699,0.902
			c-0.22,2.179-1.85,5.634-1.85,5.634c-0.522,0.256-0.482,0.034-0.482,0.034c0.33-1.058,0.73-5.417,0.874-7.169
			c0.03-0.371,0.049-0.626,0.053-0.707c0.003-0.056,0.063-0.128,0.168-0.212c0.772-0.627,3.952-1.924,3.952-1.924
			C201.898,108.434,203.127,109.37,203.127,109.37"/>
		<path clip-path="url(#SVGID_21_)" fill="#EEA886" d="M204.188,110.472c-0.175,1.521-2.347,1.348-2.347,1.348h-2.634
			c0,0,0.691,1.539,0.959,2.837c0.283,1.378,0.951,3.815,0.951,3.815s-0.043,0.083-0.521,0.037c0,0-2.066-4.12-2.857-5.155
			c-0.17-0.224-0.658-1.434-0.742-2.154c-0.028-0.243-0.011-0.431,0.08-0.507s0.301-0.221,0.581-0.397
			c0.825-0.521,2.257-1.321,3.056-1.5c1.068-0.24,2.759-0.69,2.759-0.69S204.363,108.949,204.188,110.472"/>
		<path clip-path="url(#SVGID_21_)" fill="#464240" d="M202.396,98.747c0,0,0.394-0.747,0.202-1.545
			c-0.192-0.796-0.932-1.591-2.015-1.226c-1.082,0.364-1.958,1.206-1.309,2.178c0.648,0.973-0.587,1.411-0.272,1.875
			c0.315,0.462,0.196,0.945,0.063,1.053s-0.563,0.492-0.517,0.946c0.048,0.454,2.101-1.324,2.101-1.324
			S201.768,98.457,202.396,98.747"/>
		<path clip-path="url(#SVGID_21_)" fill="#EB4747" d="M199.097,108.312c0,0,0.163,0.792,4.368-0.208
			C203.465,108.104,202.056,107.635,199.097,108.312"/>
		<path clip-path="url(#SVGID_21_)" fill="#FFCB55" d="M203.513,108.325c0.065,0.125,0.131,0.249,0.195,0.374
			c-1.537,0.045-3.074,0.09-4.611,0.134c0.243-0.813,0.164-1.917,0.121-2.754c-0.052-1.022-0.616-1.733-0.556-2.767
			c-0.305,0.049-0.357,0.059-0.662,0.104c0.467-1.327,0.626-1.984,2.073-2.495c0.471-0.167,0.78-0.199,1.29-0.157
			c1.676,0.138,2.182,0.158,3.005,1.677c-1.289,0.205-1.076,0.668-1.468,1.949c-0.19,0.625-0.389,1.322-0.287,1.982
			C202.714,107.021,203.513,107.734,203.513,108.325"/>
		<path clip-path="url(#SVGID_21_)" fill="#EEA886" d="M200.838,101.243c0.687-0.129,0.541-0.511,0.541-0.511
			s-0.032-0.215-0.045-0.487c-0.003-0.07-0.005-0.144-0.004-0.218c0-0.113,0.005-0.229,0.019-0.337
			c0.056-0.461-1.245-0.187-1.245-0.187s0.074,0.932-0.104,1.211C199.819,100.994,200.152,101.373,200.838,101.243"/>
		<path clip-path="url(#SVGID_21_)" fill="#EEA886" d="M202.147,100.729c0,0-1.384,1.598-1.896,1.968c0,0-0.588-0.53-0.226-1.933
			C200.026,100.765,200.694,100.43,202.147,100.729"/>
		<path clip-path="url(#SVGID_21_)" fill="#EEA886" d="M202.109,96.885c0,0,0.718,1.385,0.006,2.696
			c-0.713,1.311-2.113-0.571-2.203-0.792c-0.091-0.221-0.571-1.471,0.384-1.85C201.251,96.56,201.906,96.51,202.109,96.885"/>
		<path clip-path="url(#SVGID_21_)" fill="#464240" d="M201.87,97.377c0,0,0.495,0.649,0.554,1.129c0,0,0.196-0.907-0.36-1.779
			s-1.973-0.042-2.162,0.307s-0.744,0.655,0.188,2.152C200.09,99.186,201.769,98.02,201.87,97.377"/>
		<path clip-path="url(#SVGID_21_)" fill="#A77860" d="M200.723,99.719c0,0,0.124,0.272,0.611,0.526
			c-0.003-0.07-0.005-0.144-0.005-0.218C201.329,100.027,200.999,99.987,200.723,99.719"/>
		<path clip-path="url(#SVGID_21_)" fill="#EEA886" d="M207.983,107.08c0,0,0.342,0.152,0.504,0.083s0.412-0.082,0.491-0.082
			c0.105-0.001,0.437-0.119,0.431,0.011c-0.006,0.129-0.537,0.219-0.646,0.26c-0.108,0.04,0.325,0.279,0.365,0.385
			c0.041,0.106-0.449,0.803-0.726,0.604s-0.426-0.595-0.481-0.62c-0.057-0.025-0.208-0.137-0.208-0.137L207.983,107.08z"/>
		<path clip-path="url(#SVGID_21_)" fill="#EEA886" d="M209.077,107.675c0,0,0.801,0.664,0.813,0.754s-0.03,0.132-0.107,0.072
			c-0.078-0.059-0.795-0.618-0.795-0.618s0.803,0.947,0.83,1.018c0.016,0.041-0.062,0.127-0.105,0.1
			c-0.045-0.027-0.899-0.92-0.899-0.92s0.748,0.886,0.753,0.952c0.003,0.059-0.087,0.121-0.147,0.06s-0.805-0.845-0.805-0.845
			s0.5,0.681,0.47,0.741c-0.019,0.036-0.082,0.113-0.205-0.066s-0.462-0.572-0.462-0.572L209.077,107.675z"/>
		<path clip-path="url(#SVGID_21_)" fill="#202338" d="M199.482,111.819h2.359c0,0,2.172,0.174,2.347-1.348
			c0.174-1.522-0.714-2.367-0.714-2.367s-1.148,0.306-2.15,0.547c-0.502-0.106-1.106-0.176-1.813-0.157c0,0-4.248,1.403-4.12,2.143
			C195.392,110.637,197.169,109.687,199.482,111.819"/>
		<polygon clip-path="url(#SVGID_21_)" fill="#5E5853" points="201.019,109.184 196.521,109.117 198.792,110.271 		"/>
		<path clip-path="url(#SVGID_21_)" fill="#FFCB55" d="M199.621,108.609c0,0,1.012,0.392,2.252,0.037l0.058-0.463l-2.553,0.142
			L199.621,108.609z"/>
		<polygon clip-path="url(#SVGID_21_)" fill="#91887F" points="198.792,110.271 201.019,109.408 201.019,109.184 198.616,110.051 		
			"/>
		<path clip-path="url(#SVGID_21_)" fill="#EDDAD3" d="M199.637,108.823c0.013,0.166-0.156,0.286-0.31,0.221l-0.261-0.111
			c-0.078-0.033-0.124-0.116-0.11-0.2c0.108-0.681,0.342-3.328,0.001-3.783c-0.126-0.167-0.205-0.314-0.249-0.443
			c-0.225,0.58-0.505,1.328-0.616,1.729l-2.124,2.827l-0.713,0.181c0.889-2.142,1.603-3.276,1.603-3.276
			c0.14-0.374,0.538-1.504,0.891-2.511c0.224-0.636,0.428-1.221,0.538-1.536c0.056-0.16,0.166-0.294,0.311-0.381
			c0.33-0.197,0.878-0.507,1.375-0.748c0.002-0.001,0.004-0.002,0.006-0.003c0.016-0.008,0.032-0.016,0.048-0.023h0.001l0,0
			c-0.945,1.43-0.576,5.47-0.39,8.053C199.637,108.819,199.637,108.821,199.637,108.823"/>
		<path clip-path="url(#SVGID_21_)" fill="#EDDAD3" d="M203.146,100.887c0.303,0.047,1.054,0.775,1.452,1.512
			c0.455,0.84,0.919,1.796,1.266,2.11c0.639,0.578,2.426,2.623,2.511,2.573c0.032-0.019-0.49,0.61-0.557,0.64
			c-0.033,0.016-2.938-2.502-3.216-2.885c-0.265-0.363-0.972-1.89-1.184-1.855c0,0,0,0-0.001,0.001l0,0
			c-0.016,0.035-0.273,0.593-0.518,1.408c-0.004,0.014-0.008,0.027-0.012,0.04c-0.168,0.569-0.152,1.187-0.062,1.88
			c0.068,0.524,0.459,1.381,0.695,1.797c0.028,0.05,0.021,0.146-0.01,0.218c-0.018,0.044-0.045,0.079-0.077,0.091l-0.853,0.316
			l-0.2,0.073c-0.145,0.054-0.296,0.025-0.409-0.057c-0.093-0.066-0.159-0.171-0.176-0.296c-0.189-1.458-0.43-2.948-0.62-3.51
			c-0.839-2.463,0.327-4.313,0.327-4.313S202.881,100.787,203.146,100.887"/>
		<polygon clip-path="url(#SVGID_21_)" fill="#6E6760" points="198.792,110.271 197.454,106.618 193.143,106.688 194.418,110.054 		
			"/>
		<path clip-path="url(#SVGID_21_)" fill="#807066" d="M196.074,108.233c0.132,0.264,0.093,0.55-0.089,0.641
			c-0.18,0.09-0.433-0.05-0.564-0.313c-0.132-0.263-0.092-0.549,0.089-0.64C195.69,107.831,195.943,107.971,196.074,108.233"/>
		<path clip-path="url(#SVGID_21_)" fill="#464240" d="M200.62,98.264c0,0-0.276,0.43-0.021,0.801
			c0.256,0.37-0.064,0.735-0.119,1.127c-0.056,0.393,1.064,1.436-0.182,1.96c-1.246,0.525-1.643-0.343-1.324-0.819
			c0.317-0.478,0.543-0.865,0.57-1.546S199.795,98.044,200.62,98.264"/>
		<polygon clip-path="url(#SVGID_21_)" fill="#FFCB55" points="206.71,96.479 204.11,96.479 204.11,98.364 204.11,98.761 
			204.508,98.364 206.71,98.364 		"/>
		<path clip-path="url(#SVGID_21_)" fill="#C2BEBC" d="M139.197,44.216c-0.005-0.012-0.103-0.289-0.242-0.794l0.177-0.049
			c0.138,0.498,0.236,0.779,0.237,0.782L139.197,44.216z"/>
		<path clip-path="url(#SVGID_21_)" fill="#C2BEBC" d="M210.483,62.629l-0.047-0.177c0.519-0.136,1.046-0.291,1.569-0.46
			l0.056,0.174C211.536,62.336,211.005,62.492,210.483,62.629 M213.612,61.617l-0.065-0.171c0.503-0.193,1.012-0.403,1.511-0.625
			l0.075,0.167C214.63,61.211,214.119,61.422,213.612,61.617 M216.618,60.284l-0.082-0.163c0.484-0.245,0.97-0.505,1.442-0.773
			l0.091,0.159C217.594,59.776,217.106,60.038,216.618,60.284 M219.479,58.661l-0.098-0.155c0.461-0.292,0.918-0.598,1.358-0.91
			l0.105,0.149C220.401,58.059,219.942,58.367,219.479,58.661 M222.161,56.761l-0.113-0.144c0.43-0.339,0.852-0.691,1.254-1.046
			l0.121,0.137C223.019,56.065,222.594,56.419,222.161,56.761 M224.624,54.583l-0.129-0.129c0.39-0.387,0.768-0.787,1.122-1.187
			l0.138,0.122C225.397,53.792,225.017,54.194,224.624,54.583 M226.804,52.121l-0.146-0.112c0.336-0.437,0.655-0.884,0.946-1.33
			l0.153,0.1C227.464,51.229,227.143,51.68,226.804,52.121 M228.602,49.366l-0.161-0.087c0.262-0.484,0.5-0.978,0.708-1.468
			l0.169,0.071C229.106,48.377,228.866,48.876,228.602,49.366 M229.884,46.336l-0.176-0.054c0.161-0.523,0.293-1.054,0.393-1.579
			l0.18,0.034C230.18,45.269,230.047,45.807,229.884,46.336 M230.49,43.104l-0.183-0.013c0.021-0.298,0.03-0.599,0.03-0.896
			c0-0.242-0.006-0.487-0.02-0.729l0.183-0.01c0.014,0.245,0.021,0.494,0.021,0.739C230.521,42.496,230.511,42.802,230.49,43.104
			 M138.572,41.822c-0.108-0.53-0.203-1.076-0.281-1.621l0.182-0.026c0.077,0.542,0.171,1.083,0.279,1.61L138.572,41.822z
			 M230.128,39.849c-0.095-0.527-0.225-1.06-0.385-1.582l0.176-0.053c0.162,0.529,0.293,1.068,0.39,1.603L230.128,39.849z
			 M138.105,38.568c-0.046-0.547-0.076-1.1-0.09-1.642l0.184-0.004c0.013,0.539,0.043,1.087,0.088,1.631L138.105,38.568z
			 M229.182,36.739c-0.201-0.465-0.431-0.933-0.683-1.392l-0.038-0.069l0.16-0.089l0.038,0.07c0.255,0.464,0.487,0.938,0.69,1.408
			L229.182,36.739z M138.211,35.288l-0.184-0.007c0.021-0.55,0.061-1.103,0.117-1.641l0.183,0.019
			C138.271,34.193,138.231,34.741,138.211,35.288 M227.617,33.883c-0.303-0.458-0.623-0.901-0.953-1.317l0.144-0.114
			c0.333,0.42,0.656,0.868,0.962,1.33L227.617,33.883z M138.554,32.042l-0.181-0.032c0.096-0.542,0.211-1.084,0.344-1.609
			l0.178,0.044C138.763,30.967,138.647,31.503,138.554,32.042 M225.597,31.341c-0.375-0.391-0.772-0.767-1.181-1.116l0.119-0.139
			c0.413,0.353,0.814,0.732,1.193,1.128L225.597,31.341z M223.132,29.232c-0.438-0.305-0.901-0.597-1.377-0.865l0.09-0.16
			c0.48,0.271,0.949,0.565,1.392,0.874L223.132,29.232z M139.354,28.88l-0.174-0.058c0.175-0.521,0.372-1.039,0.585-1.539
			l0.169,0.072C139.723,27.851,139.527,28.364,139.354,28.88 M220.305,27.632c-0.479-0.218-0.988-0.426-1.51-0.617l0.063-0.171
			c0.526,0.192,1.039,0.402,1.523,0.622L220.305,27.632z M217.245,26.506c-0.5-0.148-1.031-0.289-1.579-0.42l0.043-0.178
			c0.551,0.131,1.085,0.273,1.588,0.422L217.245,26.506z M140.635,25.882l-0.162-0.086c0.255-0.483,0.533-0.962,0.826-1.423
			l0.154,0.098C141.163,24.928,140.888,25.402,140.635,25.882 M214.068,25.739c-0.51-0.1-1.037-0.195-1.61-0.291l0.03-0.181
			c0.575,0.096,1.104,0.191,1.615,0.292L214.068,25.739z M210.84,25.199c-0.483-0.07-1.015-0.144-1.623-0.225l0.024-0.182
			c0.609,0.081,1.142,0.154,1.625,0.225L210.84,25.199z M207.591,24.761l-0.051-0.006c-0.521-0.067-1.047-0.135-1.575-0.205
			l0.024-0.182c0.527,0.07,1.053,0.138,1.574,0.205l0.052,0.007L207.591,24.761z M204.34,24.327
			c-0.581-0.083-1.112-0.163-1.623-0.244l0.028-0.181c0.511,0.082,1.04,0.161,1.62,0.244L204.34,24.327z M201.099,23.806
			c-0.554-0.101-1.095-0.208-1.611-0.316l0.038-0.179c0.515,0.109,1.055,0.215,1.605,0.316L201.099,23.806z M142.384,23.131
			l-0.146-0.11c0.328-0.434,0.68-0.862,1.045-1.273l0.137,0.122C143.057,22.278,142.709,22.702,142.384,23.131 M197.887,23.123
			c-0.54-0.133-1.073-0.276-1.586-0.424l0.05-0.176c0.512,0.147,1.043,0.289,1.58,0.422L197.887,23.123z M194.732,22.211
			c-0.523-0.175-1.043-0.363-1.544-0.558l0.065-0.171c0.499,0.193,1.016,0.38,1.537,0.555L194.732,22.211z M191.672,21.022
			c-0.501-0.224-0.999-0.462-1.481-0.709l0.084-0.164c0.479,0.246,0.975,0.482,1.473,0.705L191.672,21.022z M144.549,20.693
			l-0.128-0.132c0.39-0.375,0.802-0.745,1.226-1.098l0.117,0.14C145.343,19.954,144.934,20.321,144.549,20.693 M188.75,19.526
			c-0.301-0.175-0.603-0.357-0.896-0.542c-0.167-0.106-0.335-0.21-0.504-0.313l0.095-0.157c0.17,0.104,0.339,0.208,0.508,0.314
			c0.291,0.184,0.591,0.365,0.89,0.538L188.75,19.526z M147.054,18.603l-0.107-0.148c0.438-0.317,0.896-0.626,1.363-0.919
			l0.098,0.155C147.944,17.981,147.488,18.289,147.054,18.603 M185.935,17.852c-0.475-0.262-0.961-0.518-1.447-0.76l0.082-0.164
			c0.488,0.243,0.978,0.5,1.454,0.763L185.935,17.852z M149.816,16.863l-0.088-0.161c0.474-0.26,0.967-0.511,1.465-0.747
			l0.078,0.165C150.777,16.355,150.287,16.605,149.816,16.863 M183.01,16.394c-0.495-0.221-1.002-0.436-1.506-0.637l0.067-0.17
			c0.507,0.202,1.016,0.417,1.513,0.64L183.01,16.394z M152.767,15.46l-0.069-0.169c0.5-0.206,1.018-0.402,1.536-0.584l0.061,0.173
			C153.778,15.061,153.265,15.256,152.767,15.46 M179.973,15.182c-0.511-0.18-1.033-0.353-1.553-0.512l0.054-0.175
			c0.521,0.161,1.047,0.333,1.561,0.514L179.973,15.182z M155.85,14.377l-0.052-0.176c0.519-0.154,1.053-0.298,1.586-0.43
			l0.044,0.178C156.897,14.08,156.366,14.224,155.85,14.377 M176.848,14.222c-0.524-0.139-1.059-0.269-1.589-0.385l0.04-0.179
			c0.532,0.117,1.069,0.248,1.596,0.387L176.848,14.222z M159.023,13.596l-0.035-0.179c0.532-0.106,1.077-0.201,1.619-0.283
			l0.027,0.181C160.096,13.396,159.554,13.491,159.023,13.596 M173.655,13.516c-0.534-0.096-1.077-0.182-1.614-0.256l0.025-0.182
			c0.539,0.075,1.085,0.161,1.621,0.257L173.655,13.516z M162.256,13.104l-0.02-0.182c0.541-0.059,1.092-0.106,1.637-0.142
			l0.013,0.182C163.343,12.998,162.794,13.045,162.256,13.104 M170.417,13.069c-0.54-0.053-1.089-0.096-1.63-0.126l0.011-0.183
			c0.543,0.031,1.094,0.074,1.637,0.126L170.417,13.069z M165.52,12.888l-0.005-0.183c0.544-0.013,1.094-0.015,1.642-0.006
			l-0.003,0.183C166.608,12.873,166.061,12.875,165.52,12.888"/>
		<path clip-path="url(#SVGID_21_)" fill="#C2BEBC" d="M208.002,63.154l-0.028-0.181c0.267-0.042,0.538-0.091,0.808-0.144
			l0.035,0.18C208.545,63.063,208.271,63.112,208.002,63.154"/>
		<polygon clip-path="url(#SVGID_21_)" fill="#616161" points="210.76,44.35 208.422,42.478 209.623,40.977 212.008,42.791 		"/>
		<polygon clip-path="url(#SVGID_21_)" fill="#E0CEC7" points="210.698,44.158 208.622,42.495 209.689,41.163 211.808,42.772 		"/>
		<polygon clip-path="url(#SVGID_21_)" fill="#616161" points="210.977,43.704 211.123,43.82 211.554,43.282 211.425,43.144 		"/>
		<path clip-path="url(#SVGID_21_)" fill="#1D2033" d="M207.354,48.403c0,0,0.019,0.425,0.029,0.601
			c0.01,0.176,0.144,0.25,0.026,0.281c-0.118,0.03-0.522,0.246-0.621,0.406c-0.099,0.159-0.667,1.218-0.928,1.15
			c-0.262-0.068-0.165-0.622,0.059-1.373c0.223-0.75,0.04-0.836,0.34-1.282C206.354,48.046,207.354,48.403,207.354,48.403"/>
		<polygon clip-path="url(#SVGID_21_)" fill="#EEA886" points="207.672,48.416 207.354,48.403 207.377,49.199 207.684,49.216 		"/>
		<path clip-path="url(#SVGID_21_)" fill="#1D2033" d="M220.346,53.121c0,0,0.353-0.226,0.497-0.322
			c0.144-0.095,0.141-0.245,0.225-0.161c0.083,0.085,0.466,0.322,0.649,0.327s1.361-0.035,1.433,0.22s-0.446,0.446-1.193,0.626
			c-0.745,0.18-0.728,0.377-1.254,0.343C220.538,54.145,220.346,53.121,220.346,53.121"/>
		<polygon clip-path="url(#SVGID_21_)" fill="#EEA886" points="220.22,52.899 220.37,53.164 221.008,52.743 220.866,52.483 		"/>
		<path clip-path="url(#SVGID_21_)" fill="#292C47" d="M215.755,45.865c-0.11,0.104-0.295,0.302-0.501,0.531
			c-0.084,0.094-0.171,0.192-0.259,0.292c-0.422,0.481-0.84,0.975-0.84,0.975c0,0-1.811,1.883-2.427,1.97
			c-1.212,0.171-4.411-0.313-4.411-0.313v-1.242c0,0,1.813,0.213,2.6,0.14c0.913-0.085,1.476,0.073,1.899-0.561
			c0.282-0.421,1.024-1.923,1.032-1.938c0.312-0.767,0.758-1.749,1.091-2C214.219,43.509,215.755,45.865,215.755,45.865"/>
		<path clip-path="url(#SVGID_21_)" fill="#292C47" d="M219.177,48.172c-0.06-0.4-0.715-1.436-1.179-2.053
			c-0.729-0.987-1.217-1.767-1.217-1.767s-3.323,0.321-3.257,0.648c0.126,0.62,1.697,1.327,1.986,1.558l0.602,0.419
			c0,0,0.598,0.426,1.036,0.802c0.588,0.504,0.485,0.769,0.854,1.525c0.331,0.677,2.224,4.019,2.224,4.019l1.018-0.631
			C221.244,52.694,219.271,48.792,219.177,48.172"/>
		<path clip-path="url(#SVGID_21_)" fill="#EEA886" d="M220.931,41.352c0,0-0.276,0.047-0.43,0.042s0.166-0.473,0.166-0.473
			L220.931,41.352z"/>
		<path clip-path="url(#SVGID_21_)" fill="#EEA886" d="M220.613,40.796c0,0,0.176-0.388,0.205-0.446
			c0.028-0.059,0.186-0.149,0.375-0.237c0.19-0.088,0.486-0.122,0.517-0.103c0.031,0.019,0.071,0.023,0.108,0.108
			s0.021,0.177,0.021,0.177s0.095,0.083,0.067,0.196c0,0,0.085,0.082,0.033,0.205c0,0,0.082,0.083,0.036,0.168
			c0,0-0.158,0.091-0.206,0.142c-0.049,0.05-0.488,0.237-0.84,0.347C220.931,41.352,220.662,41.322,220.613,40.796"/>
		<path clip-path="url(#SVGID_21_)" fill="#CF8C6C" d="M221.187,40.605c0,0-0.005,0.214-0.037,0.273s0.425,0.214,0.425,0.214
			S221.446,40.618,221.187,40.605"/>
		<path clip-path="url(#SVGID_21_)" fill="#DB9C7C" d="M221.66,40.031c0,0-0.477,0.235-0.447,0.316
			c0.028,0.082,0.088,0.094,0.088,0.094l-0.152,0.185c0,0-0.031,0.18,0.174,0.162c0,0-0.047,0.165,0.148,0.124
			c0,0,0.018,0.122,0.112,0.119c0.094-0.003,0.394-0.167,0.394-0.167s0.048-0.063-0.036-0.168c0,0,0.057-0.114-0.033-0.205
			c0,0,0.031-0.098-0.067-0.195c0,0,0.053-0.225-0.129-0.286C221.711,40.01,221.68,40.021,221.66,40.031"/>
		<path clip-path="url(#SVGID_21_)" fill="#EEA886" d="M220.832,40.341c0,0,0.364,0.005,0.562,0.095
			c0.045,0.021,0.084,0.049,0.082,0.098c-0.002,0.049-0.076,0.108-0.233,0.114c-0.158,0.006-0.359,0.085-0.359,0.085
			S220.719,40.692,220.832,40.341"/>
		<path clip-path="url(#SVGID_21_)" fill="#292C47" d="M216.383,39.277c0,0,0.873,1.351,1.533,1.989
			c0.207,0.2,2.626-0.583,2.704-0.502c0.078,0.079,0.1,0.794,0.1,0.794s-3.016,1.014-3.17,0.918
			c-0.153-0.096-2.071-2.293-2.165-2.598c-0.094-0.305-0.06-0.665,0.25-0.807C216.069,38.871,216.383,39.277,216.383,39.277"/>
		<path clip-path="url(#SVGID_21_)" fill="#CFBEB6" d="M217.034,38.601c0,0,0.233,1.022,0.176,1.585
			c-0.057,0.563-0.636,1.998-0.679,2.312c-0.043,0.313,0.25,1.855,0.25,1.855l-3.479,0.526c0,0,0.005-0.901,0.133-1.971
			c0.128-1.07,0.531-1.917,0.672-2.521c0.481-2.063,2.243-2.349,2.243-2.349L217.034,38.601z"/>
		<path clip-path="url(#SVGID_21_)" fill="#EEA886" d="M218.718,36.312c0,0,0.226,0.549,0.078,0.615
			c-0.122,0.055,0.074,0.591,0.098,0.678c0.023,0.086-0.223,0.122-0.279,0.17c-0.058,0.048-0.277,0.692-0.478,0.691
			c-0.201-0.001-1.061-0.405-1.277-0.684s-0.295-1.44-0.083-1.905C216.989,35.413,218.318,35.352,218.718,36.312"/>
		<path clip-path="url(#SVGID_21_)" fill="#EEA886" d="M217.556,38.261c0,0-0.029,0.05-0.073,0.129
			c-0.019,0.033-0.039,0.071-0.062,0.112c-0.018,0.031-0.035,0.064-0.054,0.099c-0.115,0.215-0.246,0.479-0.275,0.613
			c-0.055,0.251-0.626-1.157-0.626-1.157s0.413-0.719,0.742-1.588C217.536,35.6,217.556,38.261,217.556,38.261"/>
		<path clip-path="url(#SVGID_21_)" fill="#FCCCA2" d="M218.762,36.43c0,0,0.345-0.531-0.131-1.001
			c-0.476-0.471-1.511,0.159-1.622,0.175c-0.11,0.017-0.733-0.005-0.531,1.103c0.178,0.974,0.211,0.933,0.211,0.933
			s0.245-0.453,0.366-0.522c0.188-0.109,0.57-0.038,0.57-0.038s-0.132-0.506,0.161-0.545
			C218.08,36.495,218.483,36.292,218.762,36.43"/>
		<path clip-path="url(#SVGID_21_)" fill="#EEA886" d="M217.349,36.768c-0.018-0.069-0.069-0.365-0.333-0.223
			c-0.265,0.143,0.078,0.726,0.121,0.737C217.178,37.294,217.503,37.352,217.349,36.768"/>
		<path clip-path="url(#SVGID_21_)" fill="#EDDAD3" d="M216.529,37.942c0,0,0.36,0.839,0.668,1.124l-0.146,0.499l-0.702-1.526
			L216.529,37.942z"/>
		<polygon clip-path="url(#SVGID_21_)" fill="#3D4169" points="216.781,44.353 216.723,44.028 213.311,44.527 213.301,44.908 		"/>
		<path clip-path="url(#SVGID_21_)" fill="#323657" d="M216.941,40.569c-0.088,0.18-0.172,0.363-0.252,0.547
			c-0.175,0.406-0.33,0.817-0.468,1.22c-0.05,0.144-0.096,0.286-0.141,0.427c-0.53,1.678-1.581,2.84-1.581,2.84
			s-1.364-0.254-1.66-0.516c0,0,0.296-1.965,0.937-3.821c0.049-0.144,0.101-0.286,0.154-0.427v0c0.566-1.49,1.363-2.801,2.419-2.801
			C216.367,38.064,217.403,39.624,216.941,40.569"/>
		<path clip-path="url(#SVGID_21_)" fill="#323657" d="M213.73,41.399c0,0-0.447,1.944-1.58,3.475
			c-0.153,0.208,1.485,0.529,1.485,0.529L213.73,41.399z"/>
		<path clip-path="url(#SVGID_21_)" fill="#1D2133" d="M215.281,39.888c-0.462,0.405-1.505,1.378-1.505,1.378
			c0.049-0.144,0.101-0.286,0.154-0.427v0C214.292,40.545,215.266,39.898,215.281,39.888"/>
		<path clip-path="url(#SVGID_21_)" fill="#A77860" d="M217.556,38.261c0,0-0.029,0.05-0.073,0.129
			c-0.019,0.033-0.039,0.071-0.062,0.112c-0.439-0.404-0.525-0.672-0.528-0.681C217.099,38.005,217.556,38.261,217.556,38.261"/>
		<path clip-path="url(#SVGID_21_)" fill="#548AD1" d="M217.206,39.555c0,0-0.313,1.216-1.385,1.188
			c-0.96-0.025-2.392,0.308-2.878,0.627l-0.605,0.425l0.201-0.626c0,0,0.506-0.973,3.284-0.553c0,0,0.839,0.25,1.273-1.208
			C217.097,39.409,217.23,39.497,217.206,39.555"/>
		<path clip-path="url(#SVGID_21_)" fill="#548AD1" d="M217.188,39.095c0,0,0.073,0.359,0.036,0.485
			c-0.015,0.047-0.165-0.043-0.165-0.043L217.188,39.095z"/>
		<path clip-path="url(#SVGID_21_)" fill="#151624" d="M215.254,46.396c-0.084,0.094-0.171,0.192-0.259,0.292l-1.066-1.142
			c0.009,0.006,0.148,0.119,0.333,0.251C214.453,45.935,215.254,46.396,215.254,46.396"/>
		<path clip-path="url(#SVGID_21_)" fill="#EFAA88" d="M209.186,43.282c0,0,0.021-0.11,0.054-0.154c0,0,0.065-0.075,0.108-0.131
			c0.014-0.018,0.025-0.034,0.031-0.044c0.027-0.046,0.072-0.155,0.167-0.249c0.096-0.093,0.465-0.386,0.465-0.386l0.306,0.27
			l0.32,0.151c0,0-0.196,0.783-0.274,0.88c-0.009,0.009-0.017,0.018-0.024,0.026c-0.074,0.075-0.161,0.1-0.205,0.135
			c-0.016,0.013-0.185,0.13-0.244,0.113c-0.081-0.023-0.129-0.072-0.146-0.127c0,0-0.158-0.052-0.219-0.146
			c0,0-0.146-0.043-0.188-0.182C209.335,43.436,209.19,43.375,209.186,43.282"/>
		<path clip-path="url(#SVGID_21_)" fill="#323657" d="M216.067,39.382c0,0-2.138,0.778-2.986,1.313
			c-0.267,0.168-2.174,2.074-2.278,2.136c-0.105,0.062-0.886-0.49-0.886-0.49s2.31-2.411,2.451-2.549
			c0.142-0.138,3.357-1.646,3.705-1.667c0.348-0.021,0.336,0.151,0.407,0.517C216.58,39.155,216.067,39.382,216.067,39.382"/>
		<path clip-path="url(#SVGID_21_)" fill="#3F71D9" d="M201.814,79.593c-0.217,1.062,0.278,2.059,1.105,2.228
			s1.674-0.554,1.891-1.615c0.217-1.061-0.278-2.058-1.105-2.228C202.878,77.809,202.031,78.532,201.814,79.593"/>
		<path clip-path="url(#SVGID_21_)" fill="#252E3B" d="M234.525,77.656c0,0,2.726-7.993-2.477-10.471
			c-5.2-2.478-9.617,1.104-10.451,3.042c-0.834,1.938-0.613,5.463,0.099,7.92c0.711,2.457,0.607,6.198-0.938,7.45
			c-1.545,1.251-3.462,3.329-3.367,7.56c0.06,2.624,10.327-6.714,10.327-6.714L234.525,77.656z"/>
		<path clip-path="url(#SVGID_21_)" fill="#FFCB55" d="M227.217,87.165c0,0-4.275,0.947-5.972,1.939
			c-1.697,0.991-5.465,5.553-5.465,7.514c0,1.962,16.479,3.794,16.479,3.794l3.124,11.403c0,0,8.329-2.033,9.321-3.719
			c0.99-1.686-3.164-13.767-3.876-16.212c-0.725-2.494-3.71-4.234-7.181-4.72C230.177,86.679,227.217,87.165,227.217,87.165"/>
		<path clip-path="url(#SVGID_21_)" fill="#EEA886" d="M233.351,87.125c0,0-0.096,5.196-4.217,5.351
			c-4.12,0.154-3.263-4.983-3.263-4.983S228.885,86.271,233.351,87.125"/>
		<path clip-path="url(#SVGID_21_)" fill="#252E3B" d="M235.094,71.446c0,0,1.458,8.357-2.693,14.394
			C228.102,92.092,235.094,71.446,235.094,71.446"/>
		<path clip-path="url(#SVGID_21_)" fill="#EEA886" d="M232.467,83.452c0,0-0.287,2.485,0.191,4.03
			c0.479,1.546-6.301,1.589-6.297,0.317c0.005-1.443,0.693-2.649,0.044-5.124C225.757,80.201,232.467,83.452,232.467,83.452"/>
		<path clip-path="url(#SVGID_21_)" fill="#A77860" d="M227.208,83.769c0,0,2.141,2.23,4.877,0.232c0,0-0.226,1.426-2.194,1.609
			C227.923,85.795,227.208,83.769,227.208,83.769"/>
		<path clip-path="url(#SVGID_21_)" fill="#EEA886" d="M229.889,68.549c0,0,5.409,1.601,4.637,9.107
			c-0.773,7.508-4.306,7.121-4.637,7.176c-0.332,0.056-4.526,0.332-5.852-8.776C222.713,66.948,229.889,68.549,229.889,68.549"/>
		<path clip-path="url(#SVGID_21_)" fill="#252E3B" d="M228.492,71.896c0,0,2.939,4.676,6.033,5.76c0,0,1.688-7.846-5.288-9.489
			c-6.978-1.644-5.884,7.925-5.363,10.477C223.874,78.644,225.327,74.889,228.492,71.896"/>
		<path clip-path="url(#SVGID_21_)" fill="#88C0FF" d="M224.549,71.192c0,0,1.548-2.997,4.16-3.13
			c2.613-0.134,4.167,2.132,4.167,2.132s-1.021-2.552-4.163-2.552C225.569,67.642,224.549,71.192,224.549,71.192"/>
		<polygon clip-path="url(#SVGID_21_)" fill="#254380" points="235.185,94.76 237.019,111.815 212.874,111.815 211.039,94.76 		"/>
		<rect x="234.907" y="110.28" clip-path="url(#SVGID_21_)" fill="#254380" width="4.033" height="1.535"/>
		<path clip-path="url(#SVGID_21_)" fill="#3F71D9" d="M225.526,103.012c0.218,1.062-0.277,2.059-1.104,2.228
			c-0.828,0.169-1.674-0.554-1.891-1.615c-0.217-1.061,0.277-2.058,1.105-2.227C224.464,101.228,225.31,101.951,225.526,103.012"/>
		<g opacity="0.28" clip-path="url(#SVGID_21_)">
			<g>
				<defs>
					<rect id="SVGID_32_" x="5.274" y="8.386" width="66.74" height="26.468"/>
				</defs>
				<clipPath id="SVGID_33_">
					<use xlink:href="#SVGID_32_"  overflow="visible"/>
				</clipPath>
				<rect x="5.274" y="8.386" clip-path="url(#SVGID_33_)" fill="#FFFFFF" width="66.74" height="26.468"/>
			</g>
		</g>
		<rect x="5.481" y="33.737" clip-path="url(#SVGID_21_)" fill="#FFFFFF" width="115.995" height="27.495"/>
	</g>
	<g clip-path="url(#SVGID_2_)">
		<path fill="#FFFFFF" d="M10.811,15.129h2.991v10.672h5.238v2.502h-8.229V15.129z"/>
		<path fill="#FFFFFF" d="M28.639,22.733h-4.848v3.127h5.415v2.443h-8.405V15.129h8.131v2.443h-5.141v2.736h4.848V22.733z"/>
		<path fill="#FFFFFF" d="M34.31,24.922l-0.938,3.381h-3.088l4.026-13.174h3.909l4.085,13.174h-3.206l-1.017-3.381H34.31z
			 M37.652,22.694l-0.821-2.795c-0.234-0.782-0.469-1.759-0.665-2.542h-0.039c-0.195,0.782-0.391,1.779-0.606,2.542l-0.782,2.795
			H37.652z"/>
		<path fill="#FFFFFF" d="M44.066,15.305c0.958-0.156,2.385-0.273,3.968-0.273c1.955,0,3.323,0.293,4.261,1.036
			c0.782,0.625,1.212,1.544,1.212,2.756c0,1.681-1.192,2.834-2.326,3.245v0.059c0.919,0.372,1.427,1.251,1.759,2.463
			c0.411,1.485,0.821,3.206,1.075,3.714h-3.049c-0.215-0.372-0.528-1.446-0.918-3.069c-0.352-1.642-0.919-2.091-2.131-2.111h-0.899
			v5.18h-2.952V15.305z M47.018,20.974h1.173c1.485,0,2.365-0.743,2.365-1.896c0-1.212-0.821-1.818-2.189-1.837
			c-0.723,0-1.134,0.059-1.349,0.098V20.974z"/>
		<path fill="#FFFFFF" d="M55.66,28.304V15.129h3.479l2.736,4.828c0.782,1.388,1.564,3.03,2.15,4.515h0.059
			c-0.196-1.74-0.254-3.519-0.254-5.493v-3.851h2.736v13.174h-3.127l-2.815-5.082c-0.782-1.407-1.642-3.108-2.287-4.652l-0.059,0.02
			c0.078,1.74,0.117,3.597,0.117,5.747v3.968H55.66z"/>
	</g>
	<g clip-path="url(#SVGID_2_)">
		<path fill="#4059BF" d="M9.917,40.996c0.797-0.163,2.411-0.284,3.926-0.284c1.853,0,2.989,0.183,3.965,0.771
			c0.937,0.508,1.614,1.442,1.614,2.681c0,1.218-0.697,2.356-2.212,2.924v0.041c1.535,0.427,2.67,1.604,2.67,3.372
			c0,1.239-0.558,2.214-1.395,2.904c-0.977,0.792-2.61,1.239-5.281,1.239c-1.495,0-2.611-0.102-3.288-0.203V40.996z M12.926,46.236
			h0.997c1.594,0,2.451-0.67,2.451-1.686c0-1.036-0.777-1.584-2.152-1.584c-0.658,0-1.036,0.041-1.295,0.081V46.236z M12.926,52.309
			c0.299,0.041,0.658,0.041,1.176,0.041c1.375,0,2.591-0.528,2.591-1.97c0-1.381-1.216-1.929-2.73-1.929h-1.037V52.309z"/>
		<path fill="#4059BF" d="M34.25,47.516c0,4.488-2.67,7.21-6.596,7.21c-3.985,0-6.317-3.067-6.317-6.966
			c0-4.103,2.571-7.169,6.537-7.169C31.999,40.59,34.25,43.738,34.25,47.516z M24.545,47.698c0,2.681,1.236,4.57,3.268,4.57
			c2.053,0,3.229-1.991,3.229-4.651c0-2.458-1.156-4.57-3.248-4.57C25.741,43.047,24.545,45.038,24.545,47.698z"/>
		<path fill="#4059BF" d="M48.54,47.516c0,4.488-2.67,7.21-6.596,7.21c-3.986,0-6.317-3.067-6.317-6.966
			c0-4.103,2.571-7.169,6.537-7.169C46.288,40.59,48.54,43.738,48.54,47.516z M38.835,47.698c0,2.681,1.236,4.57,3.269,4.57
			c2.052,0,3.228-1.991,3.228-4.651c0-2.458-1.156-4.57-3.248-4.57C40.031,43.047,38.835,45.038,38.835,47.698z"/>
		<path fill="#4059BF" d="M52.586,43.413h-3.607v-2.6h10.323v2.6h-3.667v11.089h-3.049V43.413z"/>
		<path fill="#4059BF" d="M60.858,51.313c0.817,0.426,2.072,0.853,3.368,0.853c1.395,0,2.132-0.589,2.132-1.483
			c0-0.853-0.638-1.34-2.252-1.929c-2.232-0.792-3.687-2.051-3.687-4.042c0-2.335,1.913-4.123,5.082-4.123
			c1.515,0,2.63,0.325,3.428,0.69l-0.678,2.498c-0.538-0.264-1.495-0.649-2.81-0.649c-1.315,0-1.953,0.609-1.953,1.32
			c0,0.874,0.757,1.259,2.491,1.929c2.371,0.894,3.487,2.153,3.487,4.083c0,2.295-1.734,4.245-5.42,4.245
			c-1.535,0-3.049-0.406-3.806-0.833L60.858,51.313z"/>
		<path fill="#4059BF" d="M74.111,43.413h-3.607v-2.6h10.323v2.6H77.16v11.089h-3.049V43.413z"/>
		<path fill="#4059BF" d="M82.442,40.996c0.976-0.163,2.431-0.284,4.045-0.284c1.993,0,3.388,0.305,4.344,1.076
			c0.797,0.65,1.235,1.604,1.235,2.864c0,1.747-1.215,2.945-2.372,3.372v0.061c0.937,0.386,1.455,1.3,1.794,2.559
			c0.418,1.543,0.837,3.331,1.096,3.859h-3.109c-0.219-0.386-0.538-1.503-0.937-3.188c-0.358-1.706-0.937-2.173-2.172-2.193h-0.917
			v5.382h-3.009V40.996z M85.451,46.886h1.196c1.515,0,2.411-0.771,2.411-1.97c0-1.259-0.837-1.889-2.232-1.909
			c-0.737,0-1.156,0.061-1.375,0.102V46.886z"/>
		<path fill="#4059BF" d="M97.548,50.988l-0.957,3.514h-3.148l4.105-13.688h3.986l4.165,13.688h-3.268l-1.036-3.514H97.548z
			 M100.956,48.673l-0.837-2.904c-0.239-0.813-0.478-1.828-0.678-2.64h-0.04c-0.199,0.812-0.398,1.848-0.618,2.64l-0.797,2.904
			H100.956z"/>
		<path fill="#4059BF" d="M107.493,40.996c0.937-0.163,2.251-0.284,4.105-0.284c1.873,0,3.208,0.366,4.105,1.097
			c0.857,0.69,1.435,1.828,1.435,3.168c0,1.34-0.438,2.478-1.236,3.25c-1.036,0.995-2.57,1.442-4.364,1.442
			c-0.399,0-0.757-0.021-1.037-0.061v4.895h-3.009V40.996z M110.502,47.211c0.259,0.061,0.578,0.081,1.017,0.081
			c1.614,0,2.61-0.833,2.61-2.234c0-1.259-0.857-2.011-2.371-2.011c-0.618,0-1.037,0.061-1.256,0.122V47.211z"/>
	</g>
	<g clip-path="url(#SVGID_2_)">
		<defs>
			<rect id="SVGID_34_" width="265" height="149.063"/>
		</defs>
		<clipPath id="SVGID_35_">
			<use xlink:href="#SVGID_34_"  overflow="visible"/>
		</clipPath>
	</g>
	<g clip-path="url(#SVGID_2_)">
		<defs>
			<rect id="SVGID_36_" width="265" height="149.063"/>
		</defs>
		<clipPath id="SVGID_37_">
			<use xlink:href="#SVGID_36_"  overflow="visible"/>
		</clipPath>
		<path clip-path="url(#SVGID_37_)" fill="#FCFCFC" d="M226.841,103.416c0.003-0.113-0.016-0.223-0.056-0.328
			c-0.047-0.123-0.078-0.249-0.101-0.378c-0.008-0.051,0.009-0.044,0.039-0.024c0.018,0.03,0.034,0.061,0.052,0.092
			c-0.005,0.025,0.014,0.05,0.032,0.039c0.031-0.017,0.02-0.047-0.001-0.071c-0.028-0.168-0.079-0.327-0.176-0.47
			c-0.15-0.224-0.26-0.465-0.319-0.729c-0.016-0.074-0.028-0.135,0.043-0.188c0.038-0.028,0.048-0.078,0.065-0.12
			c0.066-0.16,0.09-0.331,0.125-0.499c0.022-0.112,0.064-0.213,0.172-0.273c0.044-0.025,0.063-0.065,0.06-0.116
			c-0.003-0.041-0.004-0.083,0-0.123c0.007-0.082-0.036-0.111-0.111-0.117c-0.125-0.01-0.249-0.026-0.374-0.034
			c-0.436-0.027-0.871-0.023-1.304,0.046c-0.232,0.037-0.459,0.116-0.701,0.095c-0.104-0.009-0.201-0.044-0.303-0.063
			c-0.449-0.088-0.903-0.094-1.359-0.082c-0.1,0.003-0.2,0.014-0.3,0.021c-0.076,0.004-0.151,0.008-0.228,0.015
			c-0.048,0.004-0.09,0.031-0.096,0.076c-0.013,0.104-0.038,0.213,0.063,0.294c0.078,0.063,0.114,0.147,0.135,0.244
			c0.021,0.098,0.051,0.194,0.076,0.291c0.015,0.115,0.038,0.234,0.117,0.316c0.103,0.105,0.078,0.21,0.041,0.323
			c-0.018,0.052-0.039,0.102-0.057,0.153c-0.07,0.211-0.209,0.387-0.306,0.584c-0.062,0.126-0.108,0.257-0.116,0.409
			c0.059-0.039,0.064-0.114,0.137-0.143c-0.008,0.051-0.016,0.09-0.021,0.13c-0.021,0.132-0.086,0.252-0.112,0.383
			c-0.037,0.187-0.039,0.372-0.006,0.56c0.004,0.019-0.006,0.072,0.044,0.03c0.023-0.023-0.001-0.058,0.018-0.082
			c-0.001-0.006-0.001-0.011,0.002-0.016c0.02-0.021,0.029-0.021,0.027,0.012c-0.008,0.157-0.006,0.314-0.002,0.471
			c0.003,0.102,0.005,0.204,0.041,0.302c0.059,0.158,0.122,0.315,0.21,0.461c0.019,0.008,0.035,0.012,0.034-0.018
			c-0.001-0.011-0.002-0.021-0.003-0.029c-0.013-0.033-0.002-0.066-0.008-0.1c-0.009-0.036-0.004-0.072-0.008-0.109
			c-0.003-0.023-0.016-0.046-0.007-0.072c0.004,0.018,0.003,0.033,0.006,0.049c0.002,0.012,0.003,0.023,0.003,0.036
			c0,0.026,0.004,0.05,0.032,0.062c0.027,0.055,0.053,0.111,0.083,0.164c0.137,0.236,0.249,0.482,0.279,0.759
			c0.008,0.075,0.02,0.15,0.031,0.226c0.003,0.021,0.007,0.046,0.035,0.048c0.019,0.001,0.027-0.015,0.031-0.031
			c0.013-0.041,0.021-0.082,0.03-0.125c0.011,0.059,0.023,0.115,0.032,0.173c0.009,0.12,0.059,0.226,0.12,0.326
			c0.086,0.139,0.213,0.24,0.33,0.349c0.077,0.071,0.151,0.146,0.241,0.203c0.024-0.037-0.007-0.063-0.005-0.092
			c-0.008-0.013-0.006-0.026-0.007-0.04c0.002-0.008-0.011-0.016,0-0.023c0.007,0.011,0.017,0.02,0.028,0.025
			c0.066,0.079,0.125,0.162,0.177,0.25c0.027,0.026,0.031,0.065,0.054,0.094c0.053,0.076,0.063,0.167,0.095,0.249
			c0.007,0.018,0.017,0.039,0.039,0.036c0.024-0.002,0.022-0.025,0.024-0.044c0.006-0.043,0.012-0.086,0.018-0.129
			c0.019-0.152,0.03-0.305,0.047-0.459c0.139,0.276,0.259,0.558,0.281,0.87c0.011,0.063,0.007,0.129,0.023,0.191
			c0.01,0.039,0.022,0.029,0.039,0.005c0.065-0.24,0.142-0.477,0.247-0.718c0.019,0.104-0.009,0.201,0.02,0.317
			c0.146-0.234,0.187-0.488,0.303-0.709c0.015,0.174-0.03,0.339-0.061,0.507c-0.021,0.021,0.009,0.058-0.021,0.077
			c-0.003,0.005-0.006,0.009-0.007,0.014c-0.001,0.001,0.002,0.006,0.003,0.006c0.051,0.009,0.072-0.031,0.096-0.063
			c0.087-0.112,0.153-0.237,0.213-0.366c0.057-0.122,0.096-0.252,0.147-0.397c0.029,0.104,0.018,0.19,0.019,0.275
			c0,0.045-0.042,0.112-0.001,0.126s0.08-0.051,0.108-0.094c0.017-0.042,0.059-0.065,0.082-0.103
			c0.143-0.155,0.232-0.34,0.291-0.541c0.025-0.058,0.016-0.125,0.043-0.185c0.017,0.019,0.013,0.04,0.024,0.055
			c0.002,0.005,0.002,0.011,0.001,0.016c0.012,0.014,0.003,0.032,0.012,0.046c0.015,0.025,0.033,0.04,0.05,0.001
			c0.006-0.035,0.011-0.07,0.019-0.104c0.053-0.252,0.093-0.507,0.224-0.737c0.097-0.172,0.212-0.336,0.27-0.528
			c0.009-0.008,0.014-0.019,0.017-0.03c0.001-0.005,0.002-0.01,0.002-0.015c0.001-0.008,0.002-0.017,0.003-0.025
			c0-0.005,0-0.008,0-0.008c-0.011-0.001,0.008-0.009,0.006-0.002c-0.001,0.015-0.001,0.028,0,0.042c0,0.02,0,0.038-0.003,0.057
			c-0.006,0.026,0.006,0.055-0.009,0.08c0.002,0.063-0.033,0.122-0.013,0.203c0.206-0.321,0.294-0.657,0.272-1.021
			c-0.014-0.091-0.007-0.181-0.005-0.281c0.034,0.019,0.027,0.04,0.039,0.052c0.009,0.031,0.017,0.063,0.025,0.096
			C226.844,103.668,226.854,103.544,226.841,103.416 M224.514,103.052c-0.186,0.019-0.37,0.006-0.548-0.055
			c-0.027-0.009-0.07-0.013-0.074-0.041c-0.004-0.037,0.042-0.036,0.066-0.049c0.281-0.142,0.563-0.154,0.84,0.012
			c0.018,0.012,0.041,0.017,0.049,0.047C224.744,103.025,224.628,103.04,224.514,103.052 M226.166,101.554
			c-0.018,0.376-0.072,0.743-0.271,1.073c-0.041,0.068-0.104,0.096-0.184,0.104c-0.154,0.016-0.275-0.033-0.378-0.147
			c-0.081-0.089-0.172-0.168-0.253-0.256c-0.114-0.125-0.258-0.168-0.415-0.13c-0.197,0.047-0.387,0.054-0.585,0
			c-0.152-0.041-0.296,0.006-0.411,0.123c-0.094,0.096-0.188,0.19-0.285,0.281c-0.091,0.085-0.193,0.141-0.325,0.127
			c-0.088-0.009-0.154-0.045-0.203-0.118c-0.07-0.106-0.112-0.224-0.148-0.344c-0.069-0.228-0.103-0.462-0.119-0.699
			c-0.003-0.045-0.002-0.07,0.06-0.055c0.301,0.075,0.605,0.058,0.909,0.017c0.081-0.012,0.155-0.046,0.225-0.091
			c0.037-0.04,0.09-0.06,0.126-0.102c0.047-0.053,0.079-0.113,0.102-0.18c0.023-0.049,0.041-0.1,0.066-0.147
			c0.052-0.097,0.079-0.202,0.111-0.306c0.024-0.076,0.068-0.114,0.148-0.111c0.024,0.001,0.049-0.001,0.073-0.001
			c0.111,0.001,0.136,0.021,0.165,0.129c0.006,0.021,0.015,0.04,0.022,0.061c0.021,0.143,0.092,0.269,0.135,0.403
			c0.015,0.03,0.027,0.06,0.048,0.086c0.003,0.003,0.005,0.008,0.005,0.012c0.001,0.003,0.001,0.007,0.002,0.01
			c0.002,0.005,0.005,0.01,0.015,0.01c0.052,0.053,0.101,0.109,0.174,0.135c0.141,0.098,0.3,0.123,0.466,0.121
			c0.229-0.004,0.458,0.014,0.684-0.041C226.158,101.509,226.168,101.522,226.166,101.554"/>
		<path clip-path="url(#SVGID_37_)" d="M246.016,10.554l-10.259,6.895c-1.41,0.948-1.41,2.499,0,3.447l10.259,6.894
			c1.41,0.948,3.719,0.948,5.13,0l10.259-6.894c1.41-0.948,1.41-2.5,0-3.447l-10.259-6.895
			C249.734,9.606,247.426,9.606,246.016,10.554"/>
	</g>
	<g clip-path="url(#SVGID_2_)">
		<defs>
			<path id="SVGID_38_" d="M246.016,10.554l-10.259,6.894c-1.411,0.948-1.411,2.499,0,3.447l10.259,6.895
				c1.41,0.948,3.719,0.948,5.13,0l10.258-6.895c1.411-0.948,1.411-2.499,0-3.447l-10.258-6.894
				c-0.706-0.474-1.636-0.711-2.565-0.711S246.721,10.08,246.016,10.554"/>
		</defs>
		<clipPath id="SVGID_39_">
			<use xlink:href="#SVGID_38_"  overflow="visible"/>
		</clipPath>
		
			<linearGradient id="SVGID_40_" gradientUnits="userSpaceOnUse" x1="-504.2554" y1="438.3193" x2="-504.0485" y2="438.3193" gradientTransform="matrix(0 90.1191 -134.0992 0 59026.8125 45452.9141)">
			<stop  offset="0" style="stop-color:#5C24AE"/>
			<stop  offset="1" style="stop-color:#30135A"/>
		</linearGradient>
		<rect x="234.346" y="9.843" clip-path="url(#SVGID_39_)" fill="url(#SVGID_40_)" width="28.469" height="18.895"/>
	</g>
	<g clip-path="url(#SVGID_2_)">
		<defs>
			<rect id="SVGID_41_" width="265" height="149.063"/>
		</defs>
		<clipPath id="SVGID_42_">
			<use xlink:href="#SVGID_41_"  overflow="visible"/>
		</clipPath>
		<path clip-path="url(#SVGID_42_)" d="M246.016,7.049l-10.259,6.894c-1.41,0.948-1.41,2.5,0,3.447l10.259,6.895
			c1.41,0.948,3.719,0.948,5.13,0l10.259-6.895c1.41-0.948,1.41-2.499,0-3.447l-10.259-6.894
			C249.734,6.102,247.426,6.102,246.016,7.049"/>
	</g>
	<g clip-path="url(#SVGID_2_)">
		<defs>
			<path id="SVGID_43_" d="M246.016,7.049l-10.259,6.895c-1.411,0.948-1.411,2.499,0,3.447l10.259,6.895
				c1.41,0.948,3.719,0.948,5.13,0l10.258-6.895c1.411-0.948,1.411-2.499,0-3.447l-10.258-6.895
				c-0.706-0.474-1.636-0.711-2.565-0.711S246.721,6.576,246.016,7.049"/>
		</defs>
		<clipPath id="SVGID_44_">
			<use xlink:href="#SVGID_43_"  overflow="visible"/>
		</clipPath>
		
			<linearGradient id="SVGID_45_" gradientUnits="userSpaceOnUse" x1="-504.4165" y1="437.8301" x2="-504.2095" y2="437.8301" gradientTransform="matrix(0 105.7124 -157.3023 0 69120.1719 53326.1953)">
			<stop  offset="0" style="stop-color:#7331D4"/>
			<stop  offset="1" style="stop-color:#461B84"/>
		</linearGradient>
		<rect x="234.346" y="6.338" clip-path="url(#SVGID_44_)" fill="url(#SVGID_45_)" width="28.469" height="18.895"/>
	</g>
	<g clip-path="url(#SVGID_2_)">
		<defs>
			<rect id="SVGID_46_" width="265" height="149.063"/>
		</defs>
		<clipPath id="SVGID_47_">
			<use xlink:href="#SVGID_46_"  overflow="visible"/>
		</clipPath>
		<path clip-path="url(#SVGID_47_)" d="M246.016,3.545l-10.259,6.894c-1.41,0.948-1.41,2.5,0,3.447l10.259,6.894
			c1.41,0.948,3.719,0.948,5.13,0l10.259-6.894c1.41-0.948,1.41-2.499,0-3.447l-10.259-6.894
			C249.734,2.597,247.426,2.597,246.016,3.545"/>
	</g>
	<g clip-path="url(#SVGID_2_)">
		<defs>
			<path id="SVGID_48_" d="M246.016,3.545l-10.259,6.894c-1.411,0.948-1.411,2.5,0,3.447l10.259,6.894
				c1.41,0.948,3.719,0.948,5.13,0l10.258-6.894c1.411-0.948,1.411-2.499,0-3.447l-10.258-6.894
				c-0.706-0.474-1.636-0.711-2.565-0.711S246.721,3.071,246.016,3.545"/>
		</defs>
		<clipPath id="SVGID_49_">
			<use xlink:href="#SVGID_48_"  overflow="visible"/>
		</clipPath>
		
			<linearGradient id="SVGID_50_" gradientUnits="userSpaceOnUse" x1="-503.9575" y1="438.3193" x2="-503.7502" y2="438.3193" gradientTransform="matrix(0 90.1191 -134.0992 0 59026.8125 45419.0391)">
			<stop  offset="0" style="stop-color:#905BDD"/>
			<stop  offset="1" style="stop-color:#5521A0"/>
		</linearGradient>
		<rect x="234.346" y="2.834" clip-path="url(#SVGID_49_)" fill="url(#SVGID_50_)" width="28.469" height="18.895"/>
	</g>
	<g clip-path="url(#SVGID_2_)">
		<defs>
			<rect id="SVGID_51_" width="265" height="149.063"/>
		</defs>
		<clipPath id="SVGID_52_">
			<use xlink:href="#SVGID_51_"  overflow="visible"/>
		</clipPath>
		<path clip-path="url(#SVGID_52_)" fill="#FFFFFF" d="M250.071,16.348l-7.973-5.357l3.122-2.098
			c1.364-0.917,3.084-1.003,4.277-0.201c0.829,0.557,0.994,1.485,0.364,2.094l0.044,0.03c1.222-0.635,2.68-0.59,3.74,0.123
			c1.403,0.943,1.232,2.18-0.464,3.32L250.071,16.348z M246.53,12.631l1.591-1.069c1.177-0.791,1.348-1.537,0.485-2.117
			c-0.79-0.531-1.769-0.46-2.735,0.19l-1.9,1.277L246.53,12.631z M252.154,13.768c1.199-0.806,1.343-1.556,0.421-2.175
			c-0.922-0.62-2.045-0.498-3.315,0.356l-1.873,1.258l2.802,1.883L252.154,13.768z"/>
	</g>
</g>
<g>
</g>
<g>
</g>
<g>
</g>
<g>
</g>
<g>
</g>
<g>
</g>
</svg>
