<svg id="Layer_1" data-name="Layer 1" xmlns="http://www.w3.org/2000/svg" viewBox="0 0 100 100"><defs><style>.cls-1{fill:#6c10ff}</style></defs><g id="notepad"><path id="Path_52" data-name="Path 52" class="cls-1" d="M62.87 57.53a1.48 1.48 0 111.48-1.48 1.64 1.64 0 010 .22 1.48 1.48 0 01-1.48 1.26z"/><path id="Path_53" data-name="Path 53" class="cls-1" d="M53.44 31.27h-27.9a1.49 1.49 0 110-3h27.9a1.49 1.49 0 010 3z"/><path id="Path_54" data-name="Path 54" class="cls-1" d="M53.44 47.92h-27.9a1.49 1.49 0 110-3h27.9a1.49 1.49 0 010 3z"/><path id="Path_55" data-name="Path 55" class="cls-1" d="M53.44 57.41h-27.9a1.49 1.49 0 110-3h27.9a1.49 1.49 0 010 3z"/><path id="Path_56" data-name="Path 56" class="cls-1" d="M44.35 66.9H25.54a1.49 1.49 0 110-3h18.81a1.49 1.49 0 010 3z"/><path id="Path_57" data-name="Path 57" class="cls-1" d="M59 15.1h-3.76v-1.49a1.48 1.48 0 00-3 0v1.49h-6.41v-1.49a1.48 1.48 0 10-3 0v1.49h-6.4v-1.49a1.49 1.49 0 00-3 0v1.49H27v-1.49a1.49 1.49 0 00-3 0v1.49h-3.69a5.38 5.38 0 00-5.37 5.36v62.22a5.39 5.39 0 005.37 5.37H59a5.38 5.38 0 005.37-5.37v-20a1.49 1.49 0 00-3 0v20a2.39 2.39 0 01-2.4 2.4H20.31a2.4 2.4 0 01-2.4-2.4V20.46a2.41 2.41 0 012.4-2.4h3.74v1.78a1.49 1.49 0 003 0v-1.78h6.44v1.78a1.49 1.49 0 003 0v-1.78h6.44v1.78a1.48 1.48 0 103 0v-1.78h6.45v1.78a1.48 1.48 0 003 0v-1.78H59a2.4 2.4 0 012.4 2.4v28.86a1.49 1.49 0 003 0V20.46A5.37 5.37 0 0059 15.1z"/><path id="Path_58" data-name="Path 58" class="cls-1" d="M84.33 78.76V20.1a4.85 4.85 0 00-4.85-4.85h-4.23a4.85 4.85 0 00-4.86 4.86v58.73a1.54 1.54 0 00.27.86l5.49 7.73a1.49 1.49 0 002.07.35 1.66 1.66 0 00.35-.35l5.48-7.73a1.46 1.46 0 00.27-.86v-.07zm-3-51.41v4.87h-8v-4.87h8zm-8 7.84h8v39.7l-.67-.75A1.47 1.47 0 0078.6 74a1.45 1.45 0 00-.17.18l-1.07 1.34-1.07-1.34a1.51 1.51 0 00-1.12-.56 1.46 1.46 0 00-1.1.5l-.67.74zm.55-16.43a1.84 1.84 0 011.34-.55h4.21a1.9 1.9 0 011.9 1.89v4.29h-8V20.1a1.93 1.93 0 01.55-1.34zM77.36 84l-3.62-5.1 1.33-1.47 1.13 1.42a1.49 1.49 0 002.09.23 2.5 2.5 0 00.23-.23l1.13-1.42L81 78.91z"/></g></svg>