<svg id="Layer_1" data-name="Layer 1" xmlns="http://www.w3.org/2000/svg" viewBox="0 0 100 100"><g id="store"><path id="Path_86" data-name="Path 86" d="M77.16 53.9v21.25a5 5 0 01-5 5H27.87a5 5 0 01-5-5V53.9a1 1 0 112 0v21.25a3 3 0 003 3h10.94v-17a5 5 0 015-5h12.35a5 5 0 015 5v13a1 1 0 11-2 0v-13a3 3 0 00-3-3H43.84a3 3 0 00-3 3v17H49V62.32a1 1 0 012 0v15.85h21.13a3 3 0 003-3V53.9a1 1 0 112 0zm-50.8-18a1 1 0 001 1c54.74 0 52 .1 52.42-.21a1 1 0 00.39-.65c0-.4.41.59-6.62-15.63a1 1 0 00-.92-.61H27.36a1 1 0 00-.92.61L19.9 35.52c-.11.26-.08-.16-.08 6.64a8.3 8.3 0 0015.59 4 8.3 8.3 0 0014.58 0 8.3 8.3 0 0014.59 0 8.3 8.3 0 0015.6-4 1 1 0 00-2 0 6.29 6.29 0 01-12.57 0 1 1 0 10-2 0 6.29 6.29 0 01-12.58 0 1 1 0 10-2 0 6.29 6.29 0 01-12.57 0 1 1 0 00-2 0 6.29 6.29 0 01-12.57 0v-6L28 21.83h44l5.67 13.08H27.36a1 1 0 00-1 1.01z" fill="#ff3e7d"/></g></svg>