<svg id="Layer_1" data-name="Layer 1" xmlns="http://www.w3.org/2000/svg" viewBox="0 0 100 100"><defs><style>.cls-1{fill:#ff3e7d}</style></defs><g id="shopping-cart"><g id="Group_1482" data-name="Group 1482"><g id="Group_1481" data-name="Group 1481"><g id="Group_1480" data-name="Group 1480"><path id="Path_59" data-name="Path 59" class="cls-1" d="M38.83 67.15a6.44 6.44 0 106.45 6.44 6.44 6.44 0 00-6.45-6.44zm0 10a3.58 3.58 0 113.58-3.58 3.58 3.58 0 01-3.58 3.6z"/><path id="Path_60" data-name="Path 60" class="cls-1" d="M66 67.15a6.44 6.44 0 106.44 6.44A6.44 6.44 0 0066 67.15zm0 10a3.58 3.58 0 113.58-3.58 3.58 3.58 0 01-3.58 3.6z"/><path id="Path_61" data-name="Path 61" class="cls-1" d="M80.57 29.56a1.77 1.77 0 00-1.15-.56l-46.6-.65-1.29-3.95a6.59 6.59 0 00-6.16-4.4h-4.8a1.43 1.43 0 000 2.86h4.8a3.74 3.74 0 013.44 2.51l9.09 27.39-.72 1.65a6.89 6.89 0 00.65 6.22 6.67 6.67 0 005.37 3H71a1.43 1.43 0 000-2.86H43.2a3.68 3.68 0 01-3-1.72 4 4 0 01-.36-3.44l.58-1.29 30.14-3.15a7.87 7.87 0 006.8-6l3.43-14.39a1.2 1.2 0 00-.22-1.22zm-6 15a4.88 4.88 0 01-4.37 3.8L40.41 51.4l-6.67-20.19 43.89.64z"/></g></g></g></g></svg>