<svg id="Layer_1" data-name="Layer 1" xmlns="http://www.w3.org/2000/svg" viewBox="0 0 100 100"><defs><style>.cls-1{fill:#20c89b}</style></defs><path id="Path_62" data-name="Path 62" class="cls-1" d="M77.46 45.66A1.44 1.44 0 0176 44.22v-5.78C76 24.53 62.55 18.2 50 18.2s-26 6.32-26 20.21v5.81a1.45 1.45 0 11-2.89 0v-5.81c0-15.87 15-23.1 28.94-23.1s28.88 7.24 28.88 23.13v5.78a1.44 1.44 0 01-1.47 1.44z"/><path id="Path_63" data-name="Path 63" class="cls-1" d="M50 84.69c-10.13 0-18.31-4.91-24.33-14.59-.08-.15-1.43-2.53-2-3.82a28.76 28.76 0 01-2-6.23 1.44 1.44 0 112.83-.56 25.73 25.73 0 001.79 5.62c.51 1.17 1.83 3.5 1.84 3.52C33.69 77.47 40.84 81.8 50 81.8c9 0 16.08-4.2 21.59-12.83s1.47-2.51 2-3.78a28.18 28.18 0 001.82-5.74 1.44 1.44 0 112.89.55 31.17 31.17 0 01-2 6.32c-.64 1.44-2.15 4-2.22 4.12C68.05 79.93 60 84.69 50 84.69z"/><path id="Path_64" data-name="Path 64" class="cls-1" d="M49.51 38.44a1.76 1.76 0 01-.45-.07c-5.27-1.72-8.24-4-9.91-5.89a13 13 0 01-4.34 5.65A1.44 1.44 0 0133 35.85a9.29 9.29 0 004-7.53 1.45 1.45 0 011.36-1.45 1.39 1.39 0 011.52 1.26s.86 4.48 10.06 7.48a1.45 1.45 0 01-.45 2.82z"/><path id="Path_65" data-name="Path 65" class="cls-1" d="M71.68 64.45H28.32a7.2 7.2 0 01-6.48-4.05 6.85 6.85 0 01-.75-3.17v-1.45a1.45 1.45 0 012.89 0v1.45a4.1 4.1 0 00.45 1.88 4.35 4.35 0 003.89 2.45h43.36a4.34 4.34 0 003.91-2.46 4.17 4.17 0 00.41-1.87v-1.45a1.45 1.45 0 012.89 0v1.45a7.22 7.22 0 01-7.23 7.22z"/><path id="Path_66" data-name="Path 66" class="cls-1" d="M77.46 45.66A1.44 1.44 0 0176 44.22v-1.45a4.33 4.33 0 00-4.34-4.33H28.32A4.34 4.34 0 0024 42.77v1.45a1.45 1.45 0 01-2.89 0v-1.45a7.23 7.23 0 017.23-7.22h43.34a7.23 7.23 0 017.23 7.22v1.45a1.44 1.44 0 01-1.45 1.44z"/><path id="Path_67" data-name="Path 67" class="cls-1" d="M50 76.06a11.48 11.48 0 01-8.18-3.39 1.45 1.45 0 012-2 8.87 8.87 0 0012.26 0 1.45 1.45 0 012 2A11.48 11.48 0 0150 76.06z"/><path id="Path_68" data-name="Path 68" class="cls-1" d="M80.35 57.23h-5.78a4.35 4.35 0 01-4.33-4.34v-5.78a4.35 4.35 0 014.33-4.34h5.78a4.35 4.35 0 014.34 4.34v5.78a4.35 4.35 0 01-4.34 4.34zm-5.78-11.57a1.46 1.46 0 00-1.44 1.45v5.78a1.46 1.46 0 001.44 1.45h5.78a1.46 1.46 0 001.45-1.45v-5.78a1.46 1.46 0 00-1.45-1.45z"/><path id="Path_69" data-name="Path 69" class="cls-1" d="M25.43 57.23h-5.79a4.35 4.35 0 01-4.33-4.34v-5.78a4.35 4.35 0 014.33-4.34h5.79a4.35 4.35 0 014.33 4.34v5.78a4.35 4.35 0 01-4.33 4.34zm-5.79-11.57a1.46 1.46 0 00-1.44 1.45v5.78a1.46 1.46 0 001.44 1.45h5.79a1.46 1.46 0 001.44-1.45v-5.78a1.46 1.46 0 00-1.44-1.45z"/><path id="Path_70" data-name="Path 70" class="cls-1" d="M60.12 50a4.34 4.34 0 114.33-4.34A4.34 4.34 0 0160.12 50zm0-5.78a1.45 1.45 0 101.44 1.44 1.44 1.44 0 00-1.44-1.44z"/></svg>